<?xml version="1.0" encoding="UTF-8"?><svg id="_レイヤー_2" xmlns="http://www.w3.org/2000/svg" viewBox="0 0 42.47 42.47"><defs><style>.cls-1{fill:#666;}.cls-2{fill:none;stroke:#666;stroke-miterlimit:10;}</style></defs><g id="_レイヤー_1-2"><path class="cls-1" d="M34.36,15.6c-.81-4.35-4.28-3.37-7.51-3.56-3.49-.2-6.57-.37-10.13-.21-3.48.16-8.11-.49-8.72,4.06-.39,2.9-.43,7.83.04,10.7.8,4.86,7.48,3.56,11.16,3.6,1.45.02,2.78.02,4.23,0,3.25-.04,9.91,1.12,10.82-3.09.62-2.89.65-8.58.1-11.49ZM22.65,22.86c-1.23.72-2.8,1.69-4.17,1.94v-7.38l6.82,3.55c0,.57-2.11,1.57-2.65,1.89Z"/><circle class="cls-2" cx="21.23" cy="21.23" r="20.73"/></g></svg>