<?xml version="1.0" encoding="UTF-8"?><svg id="_レイヤー_2" xmlns="http://www.w3.org/2000/svg" viewBox="0 0 42.46 42.46"><defs><style>.cls-1{fill:#666;}.cls-2{fill:none;stroke:#666;stroke-miterlimit:10;}</style></defs><g id="_レイヤー_1-2"><path class="cls-2" d="M41.96,21.23c0,11.45-9.28,20.73-20.73,20.73S.5,32.68.5,21.23,9.78.5,21.23.5s20.73,9.28,20.73,20.73ZM16.71,10.63h-6.96l8.75,11.54-7.9,9.75,3-.55c.89-1,5.69-7.13,6.51-7.12l5.82,7.53c.23.08.37-.14.43-.14h5.96c.12,0,.5.73.42-.14l-9.03-11.97,7.33-8.89c-.68.06-1.47-.12-2.12,0-.82.16-5.06,5.19-5.98,6.23-.22.25-.42.51-.42.86l-5.81-7.1Z"/><path class="cls-1" d="M16.71,10.63l5.81,7.1c0-.35.2-.61.42-.86.92-1.04,5.16-6.07,5.98-6.23.65-.12,1.45.06,2.12,0l-7.33,8.89,9.03,11.97c.07.87-.31.14-.42.14h-5.96c-.06,0-.19.22-.43.14l-5.82-7.53c-.82,0-5.62,6.12-6.51,7.12l-3,.55,7.9-9.75-8.75-11.54h6.96ZM16.22,12.97l-2.21-.06,12.35,16.46,2.12.29-.46-1.1-11.81-15.58Z"/></g></svg>