<?xml version="1.0" encoding="UTF-8"?><svg id="_レイヤー_2" xmlns="http://www.w3.org/2000/svg" viewBox="0 0 229.18 63.63"><defs><style>.cls-1{fill:#fff;}</style></defs><g id="_レイヤー_1-2"><path class="cls-1" d="M82.85,18.42h4.85l11.49,31.66h-4.7l-3.21-9.48h-12.52l-3.43,9.48h-4.4l11.92-31.66ZM89.9,37.1l-4.81-13.99-5.11,13.99h9.91Z"/><path class="cls-1" d="M104.44,18.42h3.88v31.66h-3.88v-31.66Z"/><path class="cls-1" d="M116.47,27.1h3.79v3.06c.78-1.05,1.63-1.86,2.55-2.44,1.31-.86,2.85-1.29,4.62-1.29,2.62,0,4.85,1,6.68,3.01,1.83,2,2.74,4.87,2.74,8.59,0,5.03-1.32,8.62-3.96,10.78-1.67,1.37-3.62,2.05-5.84,2.05-1.75,0-3.21-.38-4.39-1.14-.69-.43-1.46-1.17-2.32-2.22v11.79h-3.88V27.1ZM131.06,45.19c1.2-1.51,1.81-3.78,1.81-6.8,0-1.84-.27-3.42-.8-4.74-1.01-2.54-2.85-3.81-5.54-3.81s-4.54,1.34-5.54,4.03c-.53,1.44-.8,3.26-.8,5.47,0,1.78.27,3.3.8,4.55,1.01,2.38,2.85,3.58,5.54,3.58,1.82,0,3.33-.76,4.53-2.27Z"/><path class="cls-1" d="M142.22,18.31h3.88v11.81c.92-1.16,1.75-1.98,2.48-2.46,1.25-.82,2.81-1.23,4.68-1.23,3.35,0,5.62,1.17,6.81,3.51.65,1.28.97,3.05.97,5.32v14.81h-3.99v-14.55c0-1.7-.22-2.94-.65-3.73-.7-1.26-2.03-1.9-3.97-1.9-1.61,0-3.07.55-4.38,1.66-1.31,1.11-1.96,3.2-1.96,6.27v12.24h-3.88v-31.77Z"/><path class="cls-1" d="M180.9,36.11c.89-.11,1.49-.49,1.79-1.12.17-.35.26-.84.26-1.49,0-1.33-.47-2.29-1.41-2.89-.94-.6-2.28-.9-4.03-.9-2.02,0-3.46.55-4.3,1.65-.47.61-.78,1.51-.93,2.71h-3.62c.07-2.85.99-4.84,2.77-5.95,1.77-1.12,3.83-1.68,6.17-1.68,2.71,0,4.92.52,6.61,1.55,1.68,1.03,2.52,2.64,2.52,4.83v13.3c0,.4.08.73.25.97.16.24.51.37,1.05.37.17,0,.37-.01.58-.03.22-.02.45-.05.69-.1v2.87c-.6.17-1.06.28-1.38.32-.32.04-.75.06-1.29.06-1.34,0-2.31-.47-2.91-1.42-.32-.5-.54-1.21-.67-2.13-.79,1.03-1.93,1.93-3.41,2.69-1.48.76-3.11,1.14-4.89,1.14-2.14,0-3.89-.65-5.25-1.95-1.36-1.3-2.04-2.92-2.04-4.88,0-2.14.67-3.8,2-4.97,1.34-1.18,3.09-1.9,5.26-2.17l6.19-.78ZM172.74,46.59c.82.65,1.79.97,2.91.97,1.37,0,2.69-.32,3.97-.95,2.16-1.05,3.23-2.76,3.23-5.14v-3.12c-.47.3-1.08.55-1.83.76-.75.2-1.48.35-2.19.43l-2.34.3c-1.41.19-2.46.48-3.17.88-1.2.67-1.8,1.75-1.8,3.22,0,1.12.41,2,1.23,2.65Z"/><path class="cls-1" d="M194.95,26.99h3.69v3.99c.3-.78,1.04-1.72,2.22-2.83,1.18-1.11,2.54-1.67,4.07-1.67.07,0,.19,0,.37.02.17.01.47.04.88.09v4.1c-.23-.04-.44-.07-.64-.09-.19-.01-.41-.02-.64-.02-1.95,0-3.46.63-4.5,1.89-1.05,1.26-1.57,2.71-1.57,4.34v13.28h-3.88v-23.08Z"/><path class="cls-1" d="M223.11,27.71c.69.43,1.47,1.19,2.34,2.26v-11.66h3.73v31.77h-3.49v-3.21c-.9,1.42-1.97,2.45-3.2,3.08-1.23.63-2.64.95-4.23.95-2.56,0-4.78-1.08-6.66-3.24-1.87-2.16-2.81-5.04-2.81-8.63,0-3.36.86-6.27,2.57-8.74,1.71-2.46,4.15-3.7,7.33-3.7,1.76,0,3.23.37,4.42,1.12ZM214.45,45.01c1.04,1.67,2.72,2.5,5.02,2.5,1.79,0,3.26-.77,4.41-2.32,1.15-1.54,1.73-3.76,1.73-6.65s-.59-5.08-1.78-6.48c-1.19-1.4-2.65-2.1-4.4-2.1-1.94,0-3.52.75-4.73,2.24-1.21,1.49-1.81,3.69-1.81,6.6,0,2.47.52,4.54,1.57,6.21Z"/><path class="cls-1" d="M33.33,5.12L26.54,0l-.83,1.11,5,3.77s-.01,0-.02,0l.83.63-1,.75s0,0,.01,0l-4.84,3.65.83,1.11,6.06-4.57c13.94,1.59,24.83,13.41,24.83,27.78,0,15.45-12.57,28.02-28.02,28.02S1.39,49.67,1.39,34.22,13.32,6.89,28.22,6.26l1-.75-.85-.64C12.64,5.42,0,18.36,0,34.22s13.19,29.41,29.41,29.41,29.41-13.19,29.41-29.41c0-14.88-11.12-27.17-25.48-29.1Z"/></g></svg>