<?xml version="1.0" encoding="UTF-8"?><svg id="_レイヤー_2" xmlns="http://www.w3.org/2000/svg" viewBox="0 0 57.83 57.83"><defs><style>.cls-1{fill:#fff;}</style></defs><g id="_レイヤー_1-2"><path class="cls-1" d="M57.83,28.94c-.01,15.97-12.97,28.9-28.94,28.89C12.92,57.82-.01,44.86,0,28.89.01,12.92,12.97-.01,28.94,0c15.97.01,28.9,12.97,28.89,28.94ZM18.7,10.27c-4.48.64-7.92,4.5-8.52,8.9-.58,4.23-.54,14.56-.12,18.9.52,5.33,4.36,9.18,9.69,9.71,4.42.44,13.78.45,18.2.02,5.04-.49,9.18-4.17,9.71-9.3.46-4.54.47-14.45.02-18.99s-4.26-8.71-8.94-9.27c-4.19-.5-15.93-.55-20.04.04Z"/><path class="cls-1" d="M19.09,13.43c3.06-.52,16.59-.54,19.68-.05,2.85.45,5.34,3.32,5.72,6.15.5,3.72.13,8.88.03,12.64-.14,5.25.61,11.69-6.55,12.46-4.16.45-13.63.4-17.81-.02-3.43-.35-6.54-3.01-6.93-6.53-.43-3.84-.47-14.83.05-18.57.39-2.84,2.96-5.59,5.81-6.07ZM41.33,18.89c0-1.19-.96-2.15-2.15-2.15s-2.15.96-2.15,2.15.96,2.15,2.15,2.15,2.15-.96,2.15-2.15ZM38.57,28.96c0-5.34-4.32-9.68-9.67-9.68s-9.68,4.32-9.68,9.67,4.32,9.68,9.67,9.68,9.68-4.32,9.68-9.67Z"/><circle class="cls-1" cx="28.91" cy="28.94" r="6.51"/></g></svg>