<?xml version="1.0" encoding="UTF-8"?><svg id="_レイヤー_2" xmlns="http://www.w3.org/2000/svg" viewBox="0 0 223.36 64.85"><g id="_レイヤー_1-2"><path d="M.2,64.48c-.19-.1-.2-.15-.2-.52,0-.68.05-1.22.07-1.44.01-.15.04-.22.11-.22.08,0,.09.04.09.15,0,.12,0,.31.04.5.2,1,1.1,1.38,2.01,1.38,1.3,0,1.94-.94,1.94-1.8,0-.94-.39-1.48-1.56-2.44l-.61-.5c-1.44-1.18-1.76-2.02-1.76-2.94,0-1.45,1.08-2.44,2.81-2.44.53,0,.92.05,1.26.14.26.05.37.07.47.07s.14.03.14.09-.05.52-.05,1.44c0,.22-.03.31-.09.31-.08,0-.1-.07-.11-.18-.01-.16-.1-.53-.18-.68-.08-.15-.45-.72-1.69-.72-.94,0-1.67.58-1.67,1.57,0,.77.35,1.26,1.65,2.28l.38.3c1.6,1.26,1.98,2.1,1.98,3.19,0,.56-.22,1.59-1.15,2.25-.58.41-1.31.57-2.05.57-.64,0-1.26-.1-1.82-.37Z"/><path d="M12.39,59.52c0-2.2,1.6-5.3,5.34-5.3,3.05,0,5.33,1.92,5.33,5.08s-2.14,5.54-5.41,5.54c-3.71,0-5.26-2.89-5.26-5.33ZM21.76,59.68c0-3.25-1.98-5-4.12-5-2.26,0-3.96,1.49-3.96,4.46,0,3.16,1.9,5.19,4.34,5.19,1.22,0,3.74-.7,3.74-4.65Z"/><path d="M30.9,60.66c0-4.89.03-3.13.01-5.76,0-.53.04-.68.15-.68s.34.3.47.43c.2.23,2.22,2.41,4.31,4.65,1.34,1.44,2.82,3.09,3.25,3.54l-.15-6.88c-.01-.88-.11-1.18-.53-1.29-.24-.05-.46-.07-.58-.07-.15,0-.19-.04-.19-.09,0-.08.11-.1.27-.1.61,0,1.26.04,1.41.04s.6-.04,1.15-.04c.15,0,.24.01.24.1,0,.05-.05.08-.15.09-.11.01-.19.03-.35.05-.38.08-.47.28-.47,1.22l-.03,7.91c0,.89-.03.96-.12.96-.11,0-.27-.15-.99-.87-.15-.14-2.1-2.13-3.54-3.67-1.57-1.69-3.1-3.4-3.54-3.89l.18,6.49c.03,1.11.16,1.46.53,1.57.26.07.56.08.68.08.07,0,.11.03.11.08,0,.08-.08.11-.24.11-.77,0-1.31-.04-1.44-.04s-.69.04-1.3.04c-.14,0-.22-.01-.22-.11,0-.05.04-.08.11-.08.11,0,.35-.01.56-.08.34-.09.41-.49.41-1.72v-2.01Z"/><path d="M47.78,59.52c0-2.2,1.6-5.3,5.34-5.3,3.05,0,5.33,1.92,5.33,5.08s-2.14,5.54-5.41,5.54c-3.71,0-5.26-2.89-5.26-5.33ZM57.14,59.68c0-3.25-1.98-5-4.12-5-2.26,0-3.96,1.49-3.96,4.46,0,3.16,1.9,5.19,4.34,5.19,1.22,0,3.74-.7,3.74-4.65Z"/><path d="M67.75,59.21c.42-.41,2.26-2.34,3.09-3.2.81-.84.87-.98.87-1.14,0-.11-.07-.22-.18-.26-.1-.04-.12-.07-.12-.12s.08-.08.2-.08c.39,0,.35.04.81.04.42,0,1.22-.04,1.44-.04.19,0,.23.04.23.1s-.03.08-.15.09c-.26.03-.5.08-.69.16-.34.14-.6.3-1.41,1.08-1.19,1.15-2.74,2.68-3.09,3.08.85.94,3.32,3.44,3.96,4.04,1.11,1.04,1.59,1.34,2.24,1.46.12.03.26.04.39.04.11,0,.19.03.19.1s-.05.09-.2.09h-1c-1.18,0-1.49-.15-2.13-.65-.81-.64-3.25-3.25-4.45-4.68v1.4c0,1.3,0,2.37.07,2.94.04.39.12.69.53.75.19.03.46.05.54.05.12,0,.16.05.16.1,0,.07-.05.09-.2.09-.75,0-1.6-.04-1.67-.04s-.87.04-1.27.04c-.15,0-.22-.01-.22-.09,0-.04.03-.1.15-.1.08,0,.23-.01.35-.04.27-.05.35-.37.41-.76.07-.57.07-1.64.07-2.94v-2.39c0-2.11,0-2.49-.03-2.93-.03-.46-.16-.69-.46-.76-.15-.04-.39-.05-.49-.05-.11,0-.15-.03-.15-.08,0-.08.07-.11.22-.11.45,0,1.36.04,1.42.04s.92-.04,1.33-.04c.15,0,.22.03.22.1,0,.05-.03.08-.15.09-.15.01-.16.01-.3.03-.37.04-.47.31-.5.79-.03.43-.03.81-.03,2.93v.87Z"/><path d="M82.28,58.34c0-2.11,0-2.49-.03-2.93-.03-.46-.16-.69-.46-.76-.15-.04-.33-.05-.42-.05-.05,0-.11-.03-.11-.08,0-.08.07-.11.22-.11.45,0,1.3.04,1.37.04s.92-.04,1.33-.04c.15,0,.22.03.22.11,0,.05-.05.08-.11.08-.1,0-.18.01-.34.04-.37.07-.47.3-.5.77-.03.43-.03.81-.03,2.93v2.39c0,1.3,0,2.37.07,2.94.04.39.12.69.53.75.19.03.47.05.56.05.12,0,.16.04.16.08,0,.07-.05.11-.2.11-.75,0-1.61-.04-1.68-.04s-.92.04-1.33.04c-.15,0-.22-.03-.22-.11,0-.04.03-.08.15-.08.08,0,.23-.01.35-.04.27-.05.35-.37.41-.76.07-.57.07-1.64.07-2.94v-2.39Z"/><path d="M111.65,59.21c.42-.41,2.26-2.34,3.09-3.2.81-.84.87-.98.87-1.14,0-.11-.07-.22-.18-.26-.1-.04-.12-.07-.12-.12s.08-.08.2-.08c.39,0,.35.04.81.04.42,0,1.22-.04,1.44-.04.19,0,.23.04.23.1s-.03.08-.15.09c-.26.03-.5.08-.69.16-.34.14-.6.3-1.41,1.08-1.19,1.15-2.74,2.68-3.09,3.08.85.94,3.32,3.44,3.96,4.04,1.11,1.04,1.59,1.34,2.24,1.46.12.03.26.04.39.04.11,0,.19.03.19.1s-.05.09-.2.09h-1c-1.18,0-1.49-.15-2.13-.65-.81-.64-3.25-3.25-4.45-4.68v1.4c0,1.3,0,2.37.07,2.94.04.39.12.69.53.75.19.03.46.05.54.05.12,0,.16.05.16.1,0,.07-.05.09-.2.09-.75,0-1.6-.04-1.67-.04s-.87.04-1.27.04c-.15,0-.22-.01-.22-.09,0-.04.03-.1.15-.1.08,0,.23-.01.35-.04.27-.05.35-.37.41-.76.07-.57.07-1.64.07-2.94v-2.39c0-2.11,0-2.49-.03-2.93-.03-.46-.16-.69-.46-.76-.15-.04-.39-.05-.49-.05-.11,0-.15-.03-.15-.08,0-.08.07-.11.22-.11.45,0,1.36.04,1.42.04s.92-.04,1.33-.04c.15,0,.22.03.22.1,0,.05-.03.08-.15.09-.15.01-.16.01-.3.03-.37.04-.47.31-.5.79-.03.43-.03.81-.03,2.93v.87Z"/><path d="M126.58,60.24c0,1.95.43,2.79,1.02,3.35.66.62,1.27.75,2.05.75.83,0,1.64-.39,2.13-.98.62-.77.79-1.92.79-3.32v-1.69c0-2.11,0-2.49-.03-2.93-.03-.46-.14-.68-.58-.77-.11-.03-.34-.04-.46-.04-.05,0-.11-.03-.11-.08,0-.08.07-.11.22-.11.61,0,1.35.04,1.44.04.09,0,.73-.04,1.14-.04.15,0,.22.03.22.11,0,.05-.05.08-.11.08-.09,0-.18.01-.34.04-.37.08-.47.3-.5.77-.03.43-.03.81-.03,2.93v1.45c0,1.46-.16,3.09-1.25,4.05-.98.87-1.99,1-2.79,1-.46,0-1.83-.05-2.79-.96-.66-.64-1.18-1.59-1.18-3.56v-1.98c0-2.11,0-2.49-.03-2.93-.03-.46-.14-.68-.58-.77-.11-.03-.34-.04-.46-.04-.05,0-.11-.03-.11-.08,0-.08.07-.11.22-.11.61,0,1.44.04,1.56.04s.94-.04,1.34-.04c.15,0,.22.03.22.11,0,.05-.05.08-.11.08-.09,0-.18.01-.34.04-.37.05-.47.3-.5.77-.03.43-.03.81-.03,2.93v1.9Z"/><path d="M142.13,60.66c0-4.89.03-3.13.01-5.76,0-.53.04-.68.15-.68s.34.3.47.43c.2.23,2.22,2.41,4.31,4.65,1.34,1.44,2.82,3.09,3.25,3.54l-.15-6.88c-.01-.88-.11-1.18-.53-1.29-.24-.05-.46-.07-.58-.07-.15,0-.19-.04-.19-.09,0-.08.11-.1.27-.1.61,0,1.26.04,1.41.04s.6-.04,1.15-.04c.15,0,.24.01.24.1,0,.05-.05.08-.15.09-.11.01-.19.03-.35.05-.38.08-.47.28-.47,1.22l-.03,7.91c0,.89-.03.96-.12.96-.11,0-.27-.15-.99-.87-.15-.14-2.1-2.13-3.54-3.67-1.57-1.69-3.1-3.4-3.54-3.89l.18,6.49c.03,1.11.16,1.46.53,1.57.26.07.56.08.68.08.07,0,.11.03.11.08,0,.08-.08.11-.24.11-.77,0-1.31-.04-1.44-.04s-.69.04-1.3.04c-.14,0-.22-.01-.22-.11,0-.05.04-.08.11-.08.11,0,.35-.01.56-.08.34-.09.41-.49.41-1.72v-2.01Z"/><path d="M160.55,58.34c0-2.11,0-2.49-.03-2.93-.03-.46-.16-.69-.46-.76-.15-.04-.33-.05-.42-.05-.05,0-.11-.03-.11-.08,0-.08.07-.11.22-.11.45,0,1.3.04,1.37.04s.92-.04,1.33-.04c.15,0,.22.03.22.11,0,.05-.05.08-.11.08-.1,0-.18.01-.34.04-.37.07-.47.3-.5.77-.03.43-.03.81-.03,2.93v2.39c0,1.3,0,2.37.07,2.94.04.39.12.69.53.75.19.03.47.05.56.05.12,0,.16.04.16.08,0,.07-.05.11-.2.11-.75,0-1.61-.04-1.68-.04s-.92.04-1.33.04c-.15,0-.22-.03-.22-.11,0-.04.03-.08.15-.08.08,0,.23-.01.35-.04.27-.05.35-.37.41-.76.07-.57.07-1.64.07-2.94v-2.39Z"/><path d="M174.55,60.73c0,1.3,0,2.37.07,2.94.04.39.12.69.53.75.19.03.49.05.61.05.08,0,.11.04.11.08,0,.07-.07.11-.22.11-.75,0-1.6-.04-1.67-.04s-.92.04-1.33.04c-.15,0-.22-.03-.22-.11,0-.04.03-.08.11-.08.12,0,.28-.03.41-.05.27-.05.34-.35.39-.75.07-.57.07-1.64.07-2.94v-5.73c-.66.01-1.34.01-2.01.03-.84.01-1.17.11-1.38.43-.15.23-.19.32-.23.42-.04.11-.08.14-.14.14-.04,0-.07-.04-.07-.12,0-.14.27-1.3.3-1.41.03-.08.08-.26.14-.26.09,0,.23.14.6.16.39.04.91.07,1.07.07h5.08c.43,0,.75-.03.96-.07.2-.03.33-.07.38-.07.07,0,.07.08.07.16,0,.41-.04,1.34-.04,1.49,0,.12-.04.18-.09.18-.07,0-.1-.04-.11-.23,0-.05-.01-.1-.01-.15-.04-.41-.37-.72-1.67-.75-.57-.01-1.14-.01-1.71-.03v5.73Z"/><path d="M186.18,60.66c-.07,0-.11.04-.14.11l-.81,2.4c-.12.34-.19.66-.19.91,0,.27.26.39.49.39h.12c.14,0,.18.03.18.08,0,.08-.12.11-.24.11-.33,0-.87-.04-1.02-.04s-.89.04-1.53.04c-.18,0-.26-.03-.26-.11,0-.05.07-.08.19-.08.09,0,.22-.01.33-.03.62-.08.89-.6,1.14-1.27l3.08-8.42c.16-.45.22-.53.3-.53s.14.07.3.49c.2.52,2.33,6.11,3.16,8.17.49,1.21.88,1.42,1.17,1.5.2.07.42.08.53.08.08,0,.15.01.15.08,0,.08-.12.11-.27.11-.2,0-1.19,0-2.13-.03-.26-.01-.41-.01-.41-.1,0-.05.04-.08.09-.09.08-.03.16-.15.08-.37l-1.26-3.33c-.03-.05-.05-.08-.12-.08h-2.91ZM188.92,60.17c.07,0,.07-.04.05-.09l-1.29-3.66c-.07-.2-.14-.2-.2,0l-1.19,3.66c-.03.07,0,.09.04.09h2.59Z"/><path d="M201.28,59.21c.42-.41,2.26-2.34,3.09-3.2.81-.84.87-.98.87-1.14,0-.11-.07-.22-.18-.26-.09-.04-.12-.07-.12-.12s.08-.08.2-.08c.39,0,.35.04.81.04.42,0,1.22-.04,1.44-.04.19,0,.23.04.23.1s-.03.08-.15.09c-.26.03-.5.08-.69.16-.34.14-.6.3-1.41,1.08-1.19,1.15-2.74,2.68-3.09,3.08.85.94,3.32,3.44,3.96,4.04,1.11,1.04,1.59,1.34,2.24,1.46.12.03.26.04.39.04.11,0,.19.03.19.1s-.05.09-.2.09h-1c-1.18,0-1.49-.15-2.13-.65-.81-.64-3.25-3.25-4.44-4.68v1.4c0,1.3,0,2.37.07,2.94.04.39.12.69.53.75.19.03.46.05.54.05.12,0,.16.05.16.1,0,.07-.05.09-.2.09-.75,0-1.6-.04-1.67-.04s-.87.04-1.27.04c-.15,0-.22-.01-.22-.09,0-.04.03-.1.15-.1.08,0,.23-.01.35-.04.27-.05.35-.37.41-.76.07-.57.07-1.64.07-2.94v-2.39c0-2.11,0-2.49-.03-2.93-.03-.46-.16-.69-.46-.76-.15-.04-.39-.05-.49-.05-.11,0-.15-.03-.15-.08,0-.08.07-.11.22-.11.45,0,1.36.04,1.42.04s.92-.04,1.33-.04c.15,0,.22.03.22.1,0,.05-.03.08-.15.09-.15.01-.16.01-.3.03-.37.04-.47.31-.5.79-.03.43-.03.81-.03,2.93v.87Z"/><path d="M216.43,60.66c-.07,0-.11.04-.14.11l-.81,2.4c-.12.34-.19.66-.19.91,0,.27.26.39.49.39h.12c.14,0,.18.03.18.08,0,.08-.12.11-.24.11-.32,0-.87-.04-1.02-.04s-.89.04-1.53.04c-.18,0-.26-.03-.26-.11,0-.05.07-.08.19-.08.09,0,.22-.01.32-.03.62-.08.89-.6,1.14-1.27l3.08-8.42c.16-.45.22-.53.3-.53s.14.07.3.49c.2.52,2.33,6.11,3.16,8.17.49,1.21.88,1.42,1.17,1.5.2.07.42.08.53.08.08,0,.15.01.15.08,0,.08-.12.11-.27.11-.2,0-1.19,0-2.13-.03-.26-.01-.41-.01-.41-.1,0-.05.04-.08.09-.09.08-.03.16-.15.08-.37l-1.26-3.33c-.03-.05-.05-.08-.12-.08h-2.91ZM219.17,60.17c.07,0,.07-.04.05-.09l-1.29-3.66c-.07-.2-.14-.2-.2,0l-1.19,3.66c-.03.07,0,.09.04.09h2.59Z"/><path d="M27.53,24.83c0-.21-.42-.69-1.25-1.45-.21-.21-.4-.31-.59-.31-.26-.03-.42-.06-.47-.1-.05-.04-.08-.18-.08-.41v-2.52h-2.27v1.23c0,.26-.07.46-.21.61s-.35.22-.61.22h-9.55c-.26,0-.46-.07-.61-.22-.14-.14-.21-.35-.21-.61v-1.23h-2.24c0,.14,0,.27,0,.41v1.45l-.12,1.57c-.03.13-.04.3-.04.51,0,.18.03.33.08.43.08.21.21.31.39.31.42,0,.84-.08,1.27-.25.43-.17.65-.32.65-.45,0-.23.07-.42.21-.55.14-.13.35-.2.61-.2h1.41c.5,0,.74.17.74.51,0,.13-.07.3-.2.51-1.88,2.5-4.21,4.64-7,6.42-.37.23-.55.44-.55.63,0,.08.01.13.04.16.08.1.2.16.35.16.18,0,.37-.04.55-.12,2.84-1.36,5.3-3.03,7.36-5.01.21-.21.39-.31.55-.31.13,0,.23.07.31.2.08.13.12.3.12.51v1.13c-.05,1.75-.13,3.18-.23,4.31,0,.21.05.39.16.55.1.16.25.23.43.23.76,0,1.36-.18,1.8-.55.21-.21.31-.46.31-.74v-.23c-.05-.73-.08-1.3-.08-1.72l-.08-1.53v-1.02c0-.21.05-.38.16-.51.1-.13.25-.2.43-.2.05,0,.18.03.39.08,1.15.52,2.24,1.16,3.27,1.92,1.03.76,1.88,1.5,2.56,2.23.29.34.53.56.74.67.21.1.42.16.63.16.26,0,.46-.08.59-.23.13-.16.2-.37.2-.63,0-.68-.38-1.34-1.13-2-.6-.47-1.27-.9-2-1.29-.34-.18-.51-.35-.51-.51,0-.21.14-.39.43-.55l1.88-1.21c.21-.18.48-.27.82-.27h.23c.23,0,.35-.05.35-.16ZM23.66,25.34s-.26.3-.86.98c-.21.21-.42.31-.63.31-.05,0-.18-.03-.39-.08-1.1-.31-1.96-.55-2.58-.7-.47-.13-.7-.43-.7-.9v-.86c0-.26.07-.46.22-.61.14-.14.35-.22.61-.22h2.74c.55,0,.82.18.82.55,0,.18.03.32.1.41.06.09.15.14.25.14.26,0,.52-.04.78-.12.16-.05.2.04.12.27-.08.23-.23.51-.47.82Z"/><path d="M92.34,30.7c.18-.08.34-.14.47-.2.13-.05.21-.12.23-.2.03-.1-.18-.29-.63-.55-2.82-1.49-5.54-3.63-8.18-6.44-.99-1.05-1.89-2.16-2.74-3.29h-1.97c1,1.86,2.1,3.62,3.32,5.24,2.13,2.83,4.45,5.15,6.99,6.95.18.13.33.2.43.2.26,0,.47-.16.63-.47.39-.63.87-1.04,1.45-1.25Z"/><path d="M58.29,32.31c-.34.26-.51.47-.51.63,0,.08.01.13.04.16.16.18.44.14.86-.12,3-1.9,5.73-4.17,8.18-6.79,1.8-1.92,3.39-3.97,4.78-6.14h-2.92c-.8,1.34-1.65,2.67-2.61,3.97-2.35,3.21-4.96,5.97-7.83,8.3Z"/><path d="M156.48,30.08c0,.23.26.39.78.47.52.1.89.2,1.1.27.34.1.56.33.67.67.05.18.1.43.16.74.13.5.38.74.74.74h.16c1.64-.18,2.82-.74,3.54-1.68.72-.94,1.08-2.32,1.08-4.15,0-1.62-.43-3.25-1.29-4.89-.39-.75-.91-1.49-1.51-2.21h-1.78c1.35,2.07,2.04,4.24,2.04,6.52,0,.84-.1,1.49-.29,1.98-.2.48-.49.83-.88,1.04-.13.08-.28.13-.45.16-.17.03-.36.04-.57.04h-2.66c-.55,0-.82.1-.82.31Z"/><path d="M141.88,23.97v-.16c.08-.91.12-1.84.12-2.78v-1h-2.43v1.04c0,.97-.04,1.9-.12,2.82-.05.52-.34.78-.86.78h-2.74c-1.77-.05-3.13-.12-4.07-.2-.23-.03-.42,0-.55.1-.13.09-.2.23-.2.41,0,.13.04.27.12.43l.16.31c.16.37.43.55.82.55h.2c1.51-.26,2.92-.4,4.23-.43h1.76c.23,0,.42.06.57.18.14.12.22.28.22.49l-.04.23c-.42,2.17-1.14,4.08-2.17,5.73-1.03,1.66-2.46,3.14-4.28,4.44-.34.29-.51.5-.51.63,0,.08.01.13.04.16.13.18.42.16.86-.08,2.45-1.33,4.36-2.9,5.71-4.7,1.36-1.8,2.27-3.91,2.74-6.34.1-.5.4-.74.9-.74h8.18c.29,0,.53-.06.74-.2.13-.13.2-.26.2-.39s-.07-.29-.2-.47c-.31-.44-.82-.97-1.53-1.59-.7-.61-1.16-.92-1.37-.92-.1,0-.21.06-.31.18-.1.12-.24.29-.41.51-.17.22-.29.4-.37.53l-.43.63c-.23.37-.56.55-.98.55h-3.25c-.5,0-.74-.23-.74-.7Z"/><path d="M215.98,22.64c-.12.18-.23.34-.33.47l-.43.59c-.23.34-.56.51-.98.51h-6.14c-.26,0-.46-.07-.61-.21-.14-.14-.22-.35-.22-.61v-3.35h-2.54v3.35c0,.26-.07.46-.22.61-.14.14-.35.21-.61.21h-5.75c-1.8-.05-3.16-.12-4.07-.2-.23-.03-.42,0-.55.1-.13.09-.2.23-.2.41,0,.13.04.27.12.43l.16.31c.16.34.42.51.78.51h.23c1.85-.26,3.57-.4,5.17-.43h4.11c.26,0,.46.07.61.22.14.14.22.35.22.61v8.18c0,.26-.07.46-.22.61-.14.14-.35.22-.61.22h-9.74c-1.8-.05-3.14-.12-4.03-.2-.23-.03-.42,0-.55.1-.13.09-.2.22-.2.37s.04.31.12.47l.16.27c.16.34.42.51.78.51h.23c1.85-.26,3.57-.4,5.17-.43h26.57c.31,0,.53-.05.67-.16.16-.1.23-.25.23-.43,0-.13-.07-.29-.2-.47-.34-.42-.87-.92-1.6-1.51-.73-.59-1.2-.88-1.41-.88-.1,0-.21.06-.33.18-.12.12-.25.29-.41.51-.16.22-.27.39-.35.49l-.47.67c-.23.34-.56.51-.98.51h-9.47c-.26,0-.46-.07-.61-.22-.14-.14-.22-.35-.22-.61v-8.18c0-.26.07-.46.22-.61.14-.14.34-.22.61-.22h10.68c.29,0,.53-.06.74-.2.16-.13.23-.27.23-.43,0-.13-.07-.29-.2-.47-.34-.42-.85-.9-1.55-1.45-.69-.55-1.13-.82-1.31-.82-.1,0-.22.07-.35.2-.13.13-.25.29-.37.47Z"/><path d="M211.11,27.77c.76.68,1.44,1.42,2.05,2.23.61.81,1.06,1.59,1.35,2.35.13.37.35.61.67.74.26.05.43.08.51.08.36,0,.66-.14.9-.43.23-.29.35-.64.35-1.06,0-.83-.45-1.69-1.35-2.56-.9-.87-2.29-1.56-4.17-2.05-.16-.05-.34-.08-.55-.08-.13,0-.22.03-.27.08-.08.13.09.37.51.7Z"/><path d="M76.53,37c.21-.21.31-.46.31-.74v-.23c-.13-2.95-.22-5.83-.27-8.65v-7.34h-2.54v6.83c-.03,2.35-.08,4.25-.16,5.69-.08,1.45-.17,2.94-.27,4.48,0,.21.09.39.27.55.18.16.4.23.67.23.34,0,.7-.08,1.08-.23.38-.16.69-.35.92-.59Z"/><path d="M4.72,36.85v-.55c0-.26.07-.46.21-.61.14-.14.35-.22.61-.22h23.75c.26,0,.46.07.61.22.14.14.22.35.22.61v.31c0,.26.03.46.1.61.06.14.16.22.29.22.29,0,.61-.08.96-.23.35-.16.67-.34.96-.55.26-.18.39-.46.39-.82v-.16c-.13-2.9-.22-5.77-.27-8.61v-7.02h-2.43v13.44c0,.26-.07.46-.22.61-.14.14-.35.21-.61.21H5.54c-.26,0-.46-.07-.61-.21-.14-.14-.21-.35-.21-.61v-13.44h-2.39v6.83c-.03,2.35-.08,4.25-.16,5.69-.08,1.45-.17,2.94-.27,4.48,0,.21.09.39.27.55.18.16.39.23.63.23.47,0,.91-.12,1.31-.35.4-.23.61-.44.61-.63Z"/><path d="M154.99,36.18c-.13-2.9-.22-5.77-.27-8.61v-7.53h-2.39v6.87c-.03,2.35-.08,4.25-.16,5.69-.08,1.45-.17,2.94-.27,4.48,0,.18.08.36.25.53s.35.25.53.25c.68,0,1.32-.22,1.92-.67.26-.18.39-.46.39-.82v-.2Z"/><path d="M2.78,17.82V4.38c0-.26.07-.46.21-.61.14-.14.35-.22.61-.22h23.75c.26,0,.46.07.61.22.14.14.22.35.22.61v13.44h2.43V4.74c0-.44.23-.74.7-.9.05-.03.12-.05.2-.08.08-.03.16-.06.23-.12.23-.16.35-.33.35-.51,0-.16-.05-.3-.16-.43-.37-.39-.85-.82-1.45-1.27-.6-.46-.99-.69-1.17-.69-.16,0-.33.11-.51.33-.18.22-.31.38-.39.49l-.23.31c-.23.34-.56.51-.98.51H3.52c-.34,0-.68-.08-1.02-.23l-1.57-.74c-.16-.08-.3-.12-.43-.12C.2,1.29.04,1.5.04,1.92v.16c.23,2.04.35,4.32.35,6.85v8.9s2.39,0,2.39,0Z"/><path d="M72.08,7.83v1.33c0,.26-.07.46-.22.61-.14.14-.35.22-.61.22h-9.82c-1.8-.05-3.14-.12-4.03-.2-.23-.03-.42,0-.55.1-.13.09-.2.22-.2.37s.04.31.12.47l.2.35c.16.34.42.51.78.51h.23c1.85-.26,3.57-.4,5.17-.43h6.03c.21,0,.38.05.51.16.13.1.2.25.2.43l-.08.35c-.8,1.95-1.76,3.86-2.86,5.73h2.93c.44-.7.86-1.41,1.26-2.13.16-.31.34-.47.55-.47.26,0,.39.23.39.7v1.9h2.54v-3.89c0-.44.13-.67.39-.67.18,0,.35.17.51.51.58,1.41,1.23,2.75,1.92,4.05h1.91c-1.33-1.8-2.52-3.69-3.51-5.69-.08-.16-.12-.3-.12-.43,0-.36.23-.55.7-.55h12.99c.29,0,.53-.06.74-.2.13-.13.2-.26.2-.39s-.07-.29-.2-.47c-.34-.47-.9-1.02-1.68-1.66-.78-.64-1.28-.96-1.49-.96-.1,0-.22.06-.33.18-.12.12-.27.29-.45.53-.18.23-.33.42-.43.55l-.55.74c-.23.34-.56.51-.98.51h-8.81c-.26,0-.46-.07-.61-.22-.14-.14-.21-.35-.21-.61V2.97c0-.42.17-.74.51-.98l.12-.08c.21-.13.31-.26.31-.39,0-.34-.97-.81-2.9-1.41-.16-.05-.27-.08-.35-.08-.18,0-.33.06-.43.18-.1.12-.16.27-.16.45v.16c.23,2.06.35,4.4.35,7.01Z"/><path d="M157.36,15.58c-.23-.21-.35-.43-.35-.67,0-.16.05-.33.16-.51.96-1.57,2.56-4.51,4.77-8.84.1-.21.23-.35.37-.43.14-.08.35-.14.61-.2.13,0,.27-.03.43-.08.29-.08.43-.25.43-.51,0-.1-.04-.23-.12-.39-.34-.5-.8-1.03-1.39-1.6-.59-.57-.97-.86-1.15-.86-.16,0-.33.11-.53.33-.2.22-.35.39-.45.49l-.31.35c-.23.31-.57.47-1.02.47h-5.01c-.31,0-.65-.08-1.02-.23l-1.8-.94c-.16-.08-.3-.12-.43-.12-.34,0-.51.2-.51.59v.16c.23,2.06.35,4.34.35,6.85v8.39h2.39V5.09c0-.26.07-.46.22-.61.14-.14.35-.22.61-.22h4.93c.5,0,.74.21.74.63,0,.13-.01.23-.04.31-1.15,3.63-2.22,6.74-3.21,9.35-.05.21-.08.34-.08.39,0,.23.1.48.31.74.66.7,1.24,1.41,1.74,2.13h1.72c-.67-.77-1.46-1.52-2.37-2.25Z"/><path d="M137.99.39c-.18,0-.33.07-.45.2-.12.13-.18.3-.18.51v.08c.13,1.2.22,2.74.27,4.62,0,.55-.27.82-.82.82h-2.31c-1.8-.05-3.14-.12-4.03-.2-.52-.05-.78.12-.78.51,0,.13.04.27.12.43l.16.27c.16.37.43.55.82.55h.2c1.43-.26,2.79-.4,4.07-.43h1.76c.26,0,.46.07.61.21.14.14.21.35.21.61v5.01c0,.26-.07.46-.21.61-.14.14-.35.21-.61.21h-1.64c-1.77-.05-3.1-.12-3.99-.2-.52-.05-.78.12-.78.51,0,.13.04.27.12.43l.16.27c.18.34.44.51.78.51.1,0,.2-.01.27-.04,1.12-.23,2.3-.37,3.52-.39h1.57c.26,0,.46.07.61.22.14.14.21.35.21.61v1.51h2.43v-1.51c0-.26.07-.46.22-.61.14-.14.35-.22.61-.22h6.73c.31,0,.53-.05.67-.16.16-.13.23-.27.23-.43,0-.1-.05-.26-.16-.47-.31-.42-.8-.91-1.47-1.47-.67-.56-1.09-.84-1.27-.84-.1,0-.21.05-.31.16-.1.1-.23.27-.37.49-.14.22-.25.39-.33.49l-.39.59c-.23.37-.56.55-.98.55h-2.35c-.26,0-.46-.07-.61-.21-.14-.14-.22-.35-.22-.61v-5.01c0-.26.07-.46.22-.61s.35-.21.61-.21h7.44c.29,0,.52-.06.7-.2.16-.13.23-.27.23-.43,0-.13-.07-.29-.2-.47-.34-.42-.85-.91-1.55-1.49-.69-.57-1.14-.86-1.35-.86-.1,0-.21.05-.31.16-.1.1-.23.27-.37.49-.14.22-.27.4-.37.53l-.43.63c-.23.34-.56.51-.98.51h-2.82c-.26,0-.46-.07-.61-.22-.14-.14-.22-.35-.22-.61v-2.5c0-.42.17-.74.51-.98l.12-.08c.21-.13.31-.26.31-.39,0-.34-.89-.8-2.66-1.37l-.35-.08Z"/><path d="M214.16,12.13c-.12.16-.23.3-.33.43l-.39.55c-.23.34-.57.51-1.02.51h-16.55c-1.8-.05-3.14-.12-4.03-.2-.52-.05-.78.12-.78.51,0,.13.04.27.12.43l.2.35c.16.34.42.51.78.51h.23c1.85-.26,3.57-.4,5.17-.43h4.42c.26,0,.46.07.61.21.14.14.21.35.21.61v2.21h2.54v-2.21c0-.26.07-.46.22-.61.14-.14.34-.21.61-.21h10.68c.29,0,.53-.06.74-.2.13-.13.2-.27.2-.43,0-.1-.07-.25-.2-.43-.29-.42-.76-.89-1.41-1.43-.65-.53-1.08-.8-1.29-.8-.1,0-.22.07-.35.2-.13.13-.25.27-.37.43Z"/><path d="M202.6.7v.08c.1,1.17.18,2.54.23,4.11,0,.55-.27.82-.82.82h-9.08c-.44,0-.73-.25-.86-.74l-.16-.67c-.1-.47-.27-.7-.51-.7-.21,0-.31.29-.31.86-.03,1.2-.29,2.3-.8,3.29-.51.99-1.13,1.71-1.86,2.15-.31.21-.56.45-.74.72-.18.27-.27.57-.27.88,0,.18.04.35.12.51.18.44.57.67,1.17.67s1.1-.2,1.57-.59c.52-.39.97-.96,1.35-1.7.38-.74.61-1.64.69-2.68.05-.55.33-.82.82-.82h22.78c.23,0,.42.05.55.16.13.1.2.25.2.43,0,.08-.03.2-.08.35-.55,1.46-.9,2.37-1.06,2.74-.11.29-.16.51-.16.67s.08.23.23.23c.21,0,.42-.1.63-.31.83-.68,1.93-1.79,3.29-3.33.23-.29.57-.46,1.02-.51l.2-.04c.29-.08.43-.25.43-.51,0-.1-.04-.23-.12-.39-.31-.5-.76-1.04-1.33-1.64-.57-.6-.95-.9-1.14-.9-.1,0-.21.05-.31.14-.11.09-.23.23-.37.41-.14.18-.25.31-.33.39l-.35.47c-.26.31-.6.47-1.02.47h-9.98c-.26,0-.46-.07-.61-.21-.14-.14-.21-.35-.21-.61v-2c0-.42.18-.74.55-.98l.12-.08c.21-.13.31-.26.31-.39,0-.34-.94-.8-2.82-1.37l-.35-.08c-.39,0-.59.23-.59.7Z"/><path d="M5.24,11.62c-.23-.03-.42,0-.55.1-.13.09-.2.22-.2.37s.04.31.12.47l.16.31c.16.34.42.51.78.51h.23c1.85-.26,3.57-.4,5.17-.43h14.87c.26,0,.48-.06.67-.2.16-.13.23-.27.23-.43,0-.13-.07-.29-.2-.47-.29-.37-.72-.78-1.29-1.25-.57-.47-.95-.7-1.13-.7-.1,0-.2.05-.29.14-.09.09-.2.23-.33.41-.13.18-.23.33-.31.43l-.31.43c-.23.34-.56.51-.98.51h-4.46c-.26,0-.46-.07-.61-.22-.14-.14-.21-.35-.21-.61v-1.25c0-.26.07-.46.21-.61s.35-.22.61-.22h6.54c.26,0,.5-.06.7-.2.16-.13.23-.26.23-.39,0-.1-.05-.26-.16-.47-.29-.39-.71-.82-1.27-1.27-.56-.46-.93-.68-1.12-.68-.1,0-.21.05-.31.14-.1.09-.22.23-.35.41-.13.18-.22.31-.27.39l-.31.43c-.23.34-.56.51-.98.51h-2.7c-.55,0-.82-.22-.82-.67,0-.47.17-.8.51-.98.18-.13.27-.23.27-.31,0-.29-.76-.7-2.27-1.25l-.35-.08c-.39,0-.59.23-.59.7v.08c.05.68.08,1.24.08,1.68,0,.55-.27.82-.82.82h-2.19c-1.8-.05-3.14-.12-4.03-.2-.52-.05-.78.12-.78.51,0,.13.04.27.12.43l.16.27c.16.37.43.55.82.55h.2c1.43-.26,2.76-.4,3.99-.43h1.72c.26,0,.46.07.61.22.14.14.22.35.22.61v1.25c0,.26-.07.46-.22.61-.14.14-.35.22-.61.22h-4.15c-1.8-.05-3.14-.12-4.03-.2Z"/><path d="M23.87,16.51h.04c.26-.18.39-.37.39-.55,0-.16-.05-.29-.16-.39-.26-.34-.63-.7-1.11-1.08-.48-.38-.82-.57-1-.57-.16,0-.31.1-.47.31-.16.21-.27.35-.35.43l-.16.2c-.29.34-.63.51-1.02.51h-9.55c-.39,0-.73-.08-1.02-.23l-1.17-.59c-.16-.08-.3-.12-.43-.12s-.24.06-.33.18c-.09.12-.14.27-.14.45v.16c.06.83.09,1.7.11,2.6h2.24v-.49c0-.26.07-.46.21-.61.14-.14.35-.21.61-.21h9.55c.26,0,.46.07.61.21.14.14.22.35.22.61v.49h2.27v-.37c0-.34.22-.65.67-.94Z"/></g></svg>