<?xml version="1.0" encoding="UTF-8"?><svg id="_レイヤー_2" xmlns="http://www.w3.org/2000/svg" viewBox="0 0 57.85 57.85"><defs><style>.cls-1{fill:#fff;}</style></defs><g id="_レイヤー_1-2"><path class="cls-1" d="M57.85,28.95c-.01,15.97-12.98,28.91-28.95,28.9S-.01,44.87,0,28.9,12.98-.01,28.95,0c15.97.01,28.91,12.98,28.9,28.95ZM36.62,8.94h-7.13s-.03,27.51-.03,27.51c0,1.4-2.68,3.53-4.2,3.72-8.67,1.09-7.57-12.5,1.04-9.86v-6.93c-2.72-1.5-7.56.4-9.9,2.36-10.64,8.91-.67,26.22,12.65,20.99,2.7-1.06,7.53-5.73,7.53-8.7v-15.64c.96-.06,1.3.88,2.11,1.27,2.26,1.09,4.52,1.27,7.01,1.11v-6.73c-5.12.55-9.57-4.03-9.09-9.11Z"/></g></svg>