<?xml version="1.0" encoding="UTF-8"?><svg id="_レイヤー_2" xmlns="http://www.w3.org/2000/svg" viewBox="0 0 57.82 57.82"><defs><style>.cls-1{fill:#fff;}</style></defs><g id="_レイヤー_1-2"><path class="cls-1" d="M57.82,28.94c-.01,15.97-12.97,28.9-28.94,28.88S-.01,44.85,0,28.88C.01,12.92,12.97-.01,28.94,0s28.9,12.97,28.88,28.94ZM22.61,14.12h-9.7s12.19,16.1,12.19,16.1l-11.03,13.59,4.18-.76c1.24-1.39,7.94-9.93,9.08-9.92l8.11,10.51c.32.11.51-.2.59-.2h8.31c.16,0,.69,1.03.59-.18l-12.58-16.71,10.24-12.39c-.94.08-2.06-.17-2.96,0-1.15.22-7.07,7.22-8.35,8.68-.3.34-.58.72-.58,1.2l-8.1-9.91Z"/><polygon class="cls-1" points="21.93 17.38 38.38 39.12 39.02 40.66 36.06 40.26 18.85 17.29 21.93 17.38"/></g></svg>