<?xml version="1.0" encoding="UTF-8"?><svg id="_レイヤー_2" xmlns="http://www.w3.org/2000/svg" viewBox="0 0 57.82 57.82"><defs><style>.cls-1{fill:#fff;}</style></defs><g id="_レイヤー_1-2"><path class="cls-1" d="M57.82,28.94c-.01,15.97-12.97,28.9-28.94,28.88C12.92,57.81-.01,44.85,0,28.88.01,12.92,12.97-.01,28.94,0s28.9,12.97,28.88,28.94ZM22.63,15.79c-4.85.21-11.31-.69-12.16,5.65-.54,4.04-.61,10.91.05,14.92,1.11,6.77,10.43,4.98,15.56,5.04,2.02.03,3.88.03,5.91,0,4.53-.05,13.82,1.58,15.09-4.3.87-4.03.91-11.96.15-16.02-1.13-6.06-5.96-4.71-10.47-4.98-4.87-.29-9.17-.53-14.12-.31Z"/><path class="cls-1" d="M25.08,23.59l9.5,4.96c0,.8-2.95,2.19-3.7,2.63-1.72,1.01-3.91,2.36-5.81,2.7v-10.29Z"/></g></svg>