<?xml version="1.0" encoding="UTF-8"?><svg id="_レイヤー_2" xmlns="http://www.w3.org/2000/svg" viewBox="0 0 263.59 73.54"><defs><style>.cls-1{fill:#e6e6e6;}</style></defs><g id="_レイヤー_1-2"><path class="cls-1" d="M95.29,21.29h5.58l13.21,36.59h-5.4l-3.69-10.96h-14.4l-3.94,10.96h-5.06l13.71-36.59ZM103.39,42.88l-5.53-16.17-5.88,16.17h11.4Z"/><path class="cls-1" d="M120.12,21.29h4.46v36.59h-4.46V21.29Z"/><path class="cls-1" d="M133.95,31.32h4.36v3.54c.89-1.21,1.87-2.15,2.93-2.82,1.51-1,3.28-1.49,5.32-1.49,3.02,0,5.58,1.16,7.68,3.48,2.1,2.32,3.16,5.63,3.16,9.93,0,5.81-1.52,9.96-4.55,12.45-1.92,1.58-4.16,2.37-6.72,2.37-2.01,0-3.69-.44-5.05-1.32-.8-.5-1.68-1.35-2.66-2.57v13.63h-4.46V31.32ZM150.74,52.23c1.38-1.75,2.08-4.37,2.08-7.86,0-2.13-.31-3.95-.92-5.48-1.16-2.94-3.28-4.41-6.37-4.41s-5.22,1.55-6.37,4.66c-.61,1.66-.92,3.77-.92,6.33,0,2.06.31,3.81.92,5.26,1.16,2.76,3.28,4.13,6.37,4.13,2.09,0,3.83-.88,5.21-2.63Z"/><path class="cls-1" d="M163.57,21.16h4.46v13.65c1.06-1.35,2.01-2.29,2.85-2.84,1.44-.95,3.23-1.42,5.38-1.42,3.85,0,6.46,1.35,7.83,4.06.74,1.48,1.12,3.53,1.12,6.15v17.11h-4.59v-16.81c0-1.96-.25-3.4-.74-4.31-.81-1.46-2.33-2.19-4.56-2.19-1.85,0-3.53.64-5.03,1.92-1.5,1.28-2.26,3.7-2.26,7.25v14.15h-4.46V21.16Z"/><path class="cls-1" d="M208.07,41.73c1.02-.13,1.71-.56,2.06-1.29.2-.4.3-.98.3-1.73,0-1.53-.54-2.65-1.62-3.34-1.08-.69-2.63-1.04-4.64-1.04-2.33,0-3.98.63-4.95,1.9-.54.7-.9,1.74-1.06,3.13h-4.16c.08-3.3,1.14-5.59,3.18-6.88,2.04-1.29,4.4-1.94,7.09-1.94,3.12,0,5.65.6,7.6,1.79,1.93,1.2,2.9,3.06,2.9,5.58v15.37c0,.47.1.84.29,1.12.19.28.59.42,1.2.42.2,0,.42-.01.67-.04.25-.02.51-.06.79-.11v3.31c-.69.2-1.22.32-1.59.37-.36.05-.86.07-1.49.07-1.54,0-2.65-.55-3.35-1.64-.36-.58-.62-1.4-.77-2.47-.91,1.2-2.21,2.23-3.92,3.11-1.7.88-3.58,1.32-5.63,1.32-2.46,0-4.47-.75-6.04-2.25-1.56-1.5-2.34-3.38-2.34-5.63,0-2.47.77-4.39,2.31-5.75,1.54-1.36,3.55-2.2,6.05-2.51l7.11-.9ZM198.67,53.84c.94.75,2.06,1.12,3.35,1.12,1.57,0,3.09-.36,4.56-1.09,2.48-1.21,3.72-3.19,3.72-5.94v-3.61c-.54.35-1.25.64-2.1.87-.86.23-1.7.4-2.52.5l-2.7.35c-1.62.22-2.83.56-3.65,1.02-1.38.78-2.07,2.02-2.07,3.73,0,1.29.47,2.31,1.41,3.06Z"/><path class="cls-1" d="M224.23,31.2h4.24v4.61c.35-.9,1.2-1.99,2.55-3.27,1.36-1.29,2.92-1.93,4.69-1.93.08,0,.22,0,.42.03.2.02.54.05,1.02.1v4.73c-.26-.05-.51-.08-.73-.1-.22-.02-.47-.02-.73-.02-2.25,0-3.97.73-5.18,2.18-1.21,1.45-1.81,3.13-1.81,5.02v15.34h-4.46v-26.68Z"/><path class="cls-1" d="M256.61,32.02c.79.5,1.69,1.37,2.69,2.62v-13.48h4.29v36.72h-4.02v-3.71c-1.04,1.64-2.26,2.83-3.68,3.56-1.42.73-3.04,1.1-4.86,1.1-2.95,0-5.5-1.25-7.66-3.75-2.16-2.5-3.24-5.82-3.24-9.98,0-3.89.98-7.25,2.95-10.1,1.97-2.85,4.78-4.27,8.43-4.27,2.02,0,3.72.43,5.09,1.29ZM246.65,52.02c1.2,1.93,3.12,2.89,5.77,2.89,2.06,0,3.74-.89,5.07-2.68,1.32-1.78,1.99-4.35,1.99-7.68s-.68-5.87-2.05-7.49c-1.36-1.62-3.05-2.43-5.06-2.43-2.24,0-4.05.86-5.44,2.59-1.39,1.73-2.08,4.27-2.08,7.62,0,2.86.6,5.25,1.8,7.17Z"/><path class="cls-1" d="M38.34,5.92L30.52,0l-.96,1.28,5.76,4.36s-.01,0-.02,0l.96.73-1.14.87s.01,0,.02,0l-5.57,4.22.96,1.28,6.97-5.28c16.04,1.84,28.55,15.5,28.55,32.11,0,17.86-14.46,32.38-32.23,32.38S1.6,57.41,1.6,39.55,15.32,7.96,32.46,7.23l1.15-.87-.98-.74C14.54,6.26,0,21.21,0,39.55s15.17,33.99,33.82,33.99,33.82-15.25,33.82-33.99c0-17.2-12.79-31.4-29.31-33.63Z"/></g></svg>