<?xml version="1.0" encoding="UTF-8"?>
<svg id="_レイヤー_2" data-name="レイヤー 2" xmlns="http://www.w3.org/2000/svg" viewBox="0 0 441.61 197.36">
  <defs>
    <style>
      .cls-1 {
        fill: #fff;
      }
    </style>
  </defs>
  <g id="_レイヤー_1-2" data-name="レイヤー 1">
    <g>
      <path class="cls-1" d="M43.9,30.34c1.77-15.54,6.22-25.39,15.39-28.02l.23-2.02c-5.98.16-13.07,1.1-18.88,1.1S28.24.54,21.69.3l-.23,1.99c7.23,1.68,9.98,8.31,9.98,18.54,0,2.82-.21,5.93-.59,9.27l-14.87,130.56c-1.72,15.13-5.88,25.39-15.74,28.01l-.23,2.03c6.16-.16,13.42-1.1,19.41-1.1,5.54,0,12.06.86,18.44,1.1l.23-1.98c-6.76-1.69-9.6-8.32-9.6-18.8,0-2.75.2-5.76.56-9.01L43.9,30.34Z"/>
      <path class="cls-1" d="M73.95,109c-2.58-12.13-9.79-20.28-22.14-20.82-4.45-.19-7.52.77-7.86,1.22,6.58.32,7.26,4.79,10.24,12.38,9.67,24.62,8.92,77.54,28.83,91.42,3.67,2.51,8.35,4.14,13.72,4.14h0c4.34.23,7.4-1.49,7.4-1.49-22.1,4.22-23.57-57.23-30.18-86.85Z"/>
      <path class="cls-1" d="M71.24,74.84c-6.62,8.96-17.67,11.01-26.46,10.84,6.59-3.47,6.92-4.88,11.37-10.52C70.61,56.87,88.84,6.95,108.11,1.19c10.58-3.16,17.62.97,17.62.97-15.81-4.69-37.45,49.62-54.49,72.68Z"/>
      <path class="cls-1" d="M178.71,187.65c-1.04,0-1.59-.49-1.59-2.74,0-1.39.21-3.46.66-6.5l12.65-83.11c.21-1.43.32-2.83.32-4.17,0-10.24-6.04-17.63-16.64-17.63-1.04,0-2.12.06-3.25.22-7.68,1.08-17.33,6.9-23.03,10.78l11.47-70.85-4.52,2.55c-5.78,2.99-15.19,7.6-23.83,10.75l-.25,1.72c1.23-.21,2.36-.31,3.41-.31,5.5,0,8.44,2.94,8.44,9.48,0,1.3-.12,2.73-.35,4.31h0l-24.63,149.71h12.86l16.83-103.9c4.3-2.64,12.66-7.95,17.39-7.95,7.76,0,12.33,6.79,12.33,16.28,0,1.53-.12,3.13-.36,4.79l-11.48,75.18c-.21,1.41-.31,2.74-.31,3.98,0,7.93,4.13,12.33,10.95,12.33,9.54,0,14.46-22.33,17.51-36.29h-2.23c-7.09,27.98-10.27,31.36-12.36,31.36Z"/>
      <path class="cls-1" d="M261.85,70.15c-6.54,0-16.02,2.95-22.57,8.27-13.55,10.99-24.8,30.32-27.1,53.12-.39,3.88-.58,7.56-.58,11.04,0,35.3,19.12,50.71,37.96,50.71,7.5,0,19.07-4.29,26.59-11.7,9.79-9.65,20.71-27.47,22.96-49.68.39-3.9.58-7.6.58-11.1,0-35.26-19-50.65-37.83-50.65ZM288.4,140.64c-1.52,15.1-7.25,32.46-16.15,40.63-5.14,4.72-11.44,6.55-18.49,6.55-20.34,0-31.1-20.77-31.1-54.78,0-3.19.16-6.4.48-9.6,1.6-15.88,6.02-31.73,16.13-40.95,5.71-5.21,11.82-6.52,18.72-6.52,20.24,0,30.89,19.36,30.89,55.2,0,3.15-.16,6.32-.47,9.47Z"/>
      <path class="cls-1" d="M343.72,70.45c-5.65,3.16-14.08,8.11-22.62,11.29l-1.88,1.61c.93-.16,1.81-.24,2.64-.24,5.79,0,8.89,3.92,8.89,11.13,0,1.34-.11,2.8-.32,4.36l-12.93,93.28h12.15l17.41-120.46-3.33-.96Z"/>
      <path class="cls-1" d="M365.45,71.33c-9.28,0-14.92,7.37-18.99,20.67l-.63,3.33c6.11-11.81,12.78-14.21,16.32-14.21,4.02,0,5.46,1.47,4.36,6l-.52,2.05c5.11-4.25,7.11-7.81,7.11-11.62,0-4.36-2.77-6.23-7.65-6.23Z"/>
      <path class="cls-1" d="M406.54,121.24c-1.14,0-2.32-.05-3.56-.16l-.25,2.46c2.24.34,4.43.52,6.45.52,15.42,0,29.86-15.65,32.07-30.9.24-1.62.35-3.19.35-4.7,0-10.59-5.65-18.12-15.27-18.12-4.95,0-14.41,1.94-21.94,9.24-15.06,13.04-26.45,38.14-29.95,62.35-.91,6.28-1.35,11.95-1.35,17.03,0,23.74,9.66,34.68,26.94,34.68,12.24,0,23.69-9.12,30.4-23.2l-1.95-1.02c-6.28,12.95-15.83,20.17-26.63,20.17-9.22,0-14.48-15.8-14.48-40.44,0-9.07.71-19.33,2.2-30.45,1.81-12.54,7.8-27.89,16.08-36.69,5.21-5.64,11.61-6.99,13.36-6.99,7.12,0,11.22,6.99,11.22,16.46,0,1.66-.13,3.4-.38,5.18-2.34,16.17-9.08,24.59-23.34,24.59Z"/>
    </g>
  </g>
</svg>