<?xml version="1.0" encoding="UTF-8"?><svg id="_レイヤー_2" xmlns="http://www.w3.org/2000/svg" viewBox="0 0 210.23 61.05"><defs><style>.cls-1{fill:#fff;}</style></defs><g id="_レイヤー_1-2"><path class="cls-1" d="M.19,60.59C.01,60.5,0,60.45,0,60.1c0-.64.05-1.15.07-1.35.01-.14.04-.2.1-.2.08,0,.09.04.09.14,0,.11,0,.29.04.47.19.94,1.03,1.3,1.89,1.3,1.22,0,1.82-.88,1.83-1.7,0-.88-.37-1.39-1.46-2.3l-.57-.47c-1.35-1.11-1.66-1.9-1.66-2.77,0-1.36,1.02-2.29,2.64-2.29.5,0,.87.05,1.19.13.24.05.34.06.45.06s.13.03.13.09-.05.48-.05,1.35c0,.2-.03.29-.09.29-.08,0-.09-.06-.1-.17-.01-.15-.09-.5-.17-.64-.08-.14-.42-.68-1.59-.68-.88,0-1.57.55-1.57,1.48,0,.73.33,1.19,1.55,2.14l.36.28c1.5,1.19,1.86,1.98,1.86,3,0,.52-.21,1.49-1.09,2.12-.55.38-1.24.53-1.93.53-.6,0-1.19-.09-1.71-.35Z"/><path class="cls-1" d="M11.67,55.93c0-2.07,1.51-4.99,5.03-4.98,2.87,0,5.01,1.82,5.01,4.79,0,2.86-2.02,5.22-5.09,5.21-3.5,0-4.95-2.72-4.94-5.02ZM20.48,56.09c0-3.06-1.86-4.71-3.87-4.71-2.13,0-3.73,1.4-3.73,4.19,0,2.97,1.78,4.89,4.08,4.89,1.15,0,3.52-.66,3.53-4.37Z"/><path class="cls-1" d="M29.09,57.02c0-4.61.03-2.95.02-5.42,0-.5.04-.64.14-.64s.32.28.45.41c.19.22,2.09,2.27,4.05,4.38,1.26,1.35,2.65,2.91,3.06,3.33l-.13-6.48c-.01-.83-.1-1.11-.5-1.21-.23-.05-.43-.06-.55-.06-.14,0-.18-.04-.18-.09,0-.08.1-.09.25-.09.57,0,1.19.04,1.33.04s.56-.04,1.08-.04c.14,0,.23.01.23.09,0,.05-.05.08-.14.09-.1.01-.18.03-.33.05-.36.08-.45.27-.45,1.15l-.03,7.45c0,.84-.03.91-.12.91-.1,0-.26-.14-.93-.82-.14-.13-1.98-2-3.33-3.46-1.48-1.6-2.92-3.2-3.33-3.66l.16,6.11c.02,1.05.15,1.38.5,1.48.24.06.52.08.64.08.06,0,.1.03.1.08,0,.08-.08.1-.23.1-.73,0-1.24-.04-1.35-.04s-.65.04-1.22.04c-.13,0-.2-.01-.2-.1,0-.05.04-.08.1-.08.1,0,.33-.01.52-.08.32-.09.38-.46.38-1.62v-1.89Z"/><path class="cls-1" d="M44.97,55.96c0-2.07,1.51-4.99,5.03-4.98,2.87,0,5.01,1.82,5.01,4.79,0,2.86-2.02,5.22-5.09,5.21-3.5,0-4.95-2.72-4.94-5.02ZM53.79,56.12c0-3.06-1.86-4.71-3.87-4.71-2.13,0-3.73,1.4-3.73,4.19,0,2.97,1.78,4.89,4.08,4.89,1.15,0,3.52-.66,3.53-4.37Z"/><path class="cls-1" d="M63.77,55.69c.4-.38,2.13-2.21,2.91-3.01.77-.79.82-.92.82-1.07,0-.1-.06-.2-.17-.24-.09-.04-.11-.06-.11-.12s.08-.08.19-.08c.37,0,.33.04.77.04.4,0,1.15-.04,1.35-.04.18,0,.22.04.22.09s-.03.08-.14.09c-.24.03-.47.08-.65.15-.32.13-.56.28-1.33,1.02-1.12,1.08-2.58,2.52-2.91,2.89.8.88,3.12,3.24,3.72,3.8,1.04.98,1.49,1.26,2.1,1.38.11.03.24.04.37.04.1,0,.18.03.18.09s-.05.09-.19.09h-.94c-1.11,0-1.4-.14-2-.62-.76-.6-3.06-3.06-4.18-4.4v1.31c0,1.22,0,2.23.06,2.77.04.37.11.65.5.7.18.03.43.05.51.05.11,0,.15.05.15.09,0,.06-.05.09-.19.09-.7,0-1.51-.04-1.57-.04s-.82.04-1.2.04c-.14,0-.2-.01-.2-.09,0-.04.03-.09.14-.09.08,0,.22-.01.33-.04.26-.05.33-.34.38-.71.06-.54.07-1.54.07-2.77v-2.25c0-1.99,0-2.35-.02-2.76-.03-.43-.15-.65-.43-.71-.14-.04-.37-.05-.46-.05-.1,0-.14-.03-.14-.08,0-.08.06-.1.2-.1.42,0,1.28.04,1.34.04s.87-.04,1.25-.04c.14,0,.2.03.2.09,0,.05-.03.08-.14.09-.14.01-.15.01-.28.03-.34.04-.45.29-.47.74-.03.41-.03.77-.03,2.76v.82Z"/><path class="cls-1" d="M77.45,54.88c0-1.99,0-2.35-.02-2.76-.03-.43-.15-.65-.43-.71-.14-.04-.31-.05-.4-.05-.05,0-.1-.03-.1-.08,0-.08.06-.1.2-.1.42,0,1.22.04,1.29.04s.87-.04,1.25-.04c.14,0,.2.03.2.1,0,.05-.05.08-.1.08-.09,0-.17.01-.32.04-.34.06-.45.28-.47.73-.03.41-.03.77-.03,2.76v2.25c0,1.22,0,2.23.06,2.77.04.37.11.65.5.7.18.03.45.05.52.05.11,0,.15.04.15.08,0,.06-.05.1-.19.1-.7,0-1.52-.04-1.58-.04s-.87.04-1.25.04c-.14,0-.2-.03-.2-.1,0-.04.03-.08.14-.08.08,0,.22-.01.33-.04.26-.05.33-.34.38-.71.06-.54.07-1.54.07-2.77v-2.25Z"/><path class="cls-1" d="M105.09,55.73c.4-.38,2.13-2.21,2.91-3.01.77-.79.82-.92.82-1.07,0-.1-.06-.2-.17-.24-.09-.04-.11-.06-.11-.12s.08-.08.19-.08c.37,0,.33.04.77.04.4,0,1.15-.04,1.35-.04.18,0,.22.04.22.09s-.03.08-.14.09c-.24.03-.47.08-.65.15-.32.13-.56.28-1.33,1.02-1.12,1.08-2.58,2.52-2.91,2.89.8.88,3.12,3.24,3.72,3.8,1.04.98,1.49,1.26,2.1,1.38.11.03.24.04.37.04.1,0,.18.03.18.09s-.05.09-.19.09h-.94c-1.11,0-1.4-.14-2-.62-.76-.6-3.06-3.06-4.18-4.4v1.31c0,1.22,0,2.23.06,2.77.04.37.11.65.5.7.18.03.43.05.51.05.11,0,.15.05.15.09,0,.06-.05.09-.19.09-.7,0-1.51-.04-1.57-.04s-.82.04-1.2.04c-.14,0-.2-.01-.2-.09,0-.04.03-.09.14-.09.08,0,.22-.01.33-.04.26-.05.33-.34.38-.71.06-.54.07-1.54.07-2.77v-2.25c0-1.99,0-2.35-.02-2.76-.03-.43-.15-.65-.43-.71-.14-.04-.37-.05-.46-.05-.1,0-.14-.03-.14-.08,0-.08.06-.1.2-.1.42,0,1.28.04,1.34.04s.87-.04,1.25-.04c.14,0,.2.03.2.09,0,.05-.03.08-.14.09-.14.01-.15.01-.28.03-.34.04-.45.29-.47.74-.03.41-.03.77-.03,2.76v.82Z"/><path class="cls-1" d="M119.14,56.71c0,1.84.41,2.63.95,3.15.62.59,1.2.7,1.93.7.78,0,1.54-.37,2-.92.59-.73.74-1.81.74-3.12v-1.59c0-1.99,0-2.35-.02-2.76-.03-.43-.13-.64-.55-.73-.1-.03-.32-.04-.43-.04-.05,0-.1-.03-.1-.08,0-.08.06-.1.2-.1.57,0,1.28.04,1.35.04.09,0,.69-.04,1.07-.04.14,0,.2.03.2.1,0,.05-.05.08-.1.08-.09,0-.17.01-.32.04-.34.08-.45.28-.47.73-.03.41-.03.77-.03,2.76v1.37c0,1.38-.16,2.91-1.18,3.81-.92.82-1.88.94-2.63.94-.43,0-1.72-.05-2.63-.91-.62-.6-1.11-1.49-1.11-3.36v-1.86c0-1.99,0-2.35-.02-2.76-.03-.43-.13-.64-.55-.73-.1-.03-.32-.04-.43-.04-.05,0-.1-.03-.1-.08,0-.08.06-.1.2-.1.57,0,1.35.04,1.47.04s.88-.04,1.26-.04c.14,0,.2.03.2.1,0,.05-.05.08-.1.08-.09,0-.17.01-.32.04-.34.05-.45.28-.47.73-.03.41-.03.77-.03,2.76v1.79Z"/><path class="cls-1" d="M133.78,57.12c0-4.61.03-2.95.02-5.42,0-.5.04-.64.14-.64s.32.28.45.41c.19.22,2.09,2.27,4.05,4.38,1.26,1.35,2.65,2.91,3.06,3.33l-.13-6.48c-.01-.83-.1-1.11-.5-1.21-.23-.05-.43-.06-.55-.06-.14,0-.18-.04-.18-.09,0-.08.1-.09.25-.09.57,0,1.19.04,1.33.04s.56-.04,1.08-.04c.14,0,.23.01.23.09,0,.05-.05.08-.14.09-.1.01-.18.03-.33.05-.36.08-.45.27-.45,1.15l-.03,7.45c0,.84-.03.91-.12.91-.1,0-.26-.14-.93-.82-.14-.13-1.98-2-3.33-3.46-1.48-1.6-2.92-3.2-3.33-3.66l.16,6.11c.02,1.05.15,1.38.5,1.48.24.06.52.08.64.08.06,0,.1.03.1.08,0,.08-.08.1-.23.1-.73,0-1.24-.04-1.35-.04s-.65.04-1.22.04c-.13,0-.2-.01-.2-.1,0-.05.04-.08.1-.08.1,0,.33-.01.52-.08.32-.09.38-.46.38-1.62v-1.89Z"/><path class="cls-1" d="M151.12,54.95c0-1.99,0-2.35-.02-2.76-.03-.43-.15-.65-.43-.71-.14-.04-.31-.05-.4-.05-.05,0-.1-.03-.1-.08,0-.08.06-.1.2-.1.42,0,1.22.04,1.29.04s.87-.04,1.25-.04c.14,0,.2.03.2.1,0,.05-.05.08-.1.08-.09,0-.17.01-.32.04-.34.06-.45.28-.47.73-.03.41-.03.77-.03,2.76v2.25c0,1.22,0,2.23.06,2.77.04.37.11.65.5.7.18.03.45.05.52.05.11,0,.15.04.15.08,0,.06-.05.1-.19.1-.7,0-1.52-.04-1.58-.04s-.87.04-1.25.04c-.14,0-.2-.03-.2-.1,0-.04.03-.08.14-.08.08,0,.22-.01.33-.04.26-.05.33-.34.38-.71.06-.54.07-1.54.07-2.77v-2.25Z"/><path class="cls-1" d="M164.29,57.21c0,1.22,0,2.23.06,2.77.04.37.11.65.5.7.18.03.46.05.57.05.08,0,.1.04.1.08,0,.06-.06.1-.2.1-.7,0-1.51-.04-1.57-.04s-.87.04-1.25.04c-.14,0-.2-.03-.2-.1,0-.04.03-.08.1-.08.11,0,.27-.03.38-.05.25-.05.32-.33.37-.7.06-.54.07-1.54.07-2.77v-5.4c-.62.01-1.26.01-1.88.02-.79.01-1.1.1-1.3.41-.14.22-.18.31-.22.39-.04.1-.08.13-.13.13-.04,0-.06-.04-.06-.11,0-.13.26-1.22.28-1.33.03-.08.08-.24.13-.24.09,0,.22.13.56.15.37.04.85.06,1.01.06h4.78c.41,0,.7-.02.91-.06.19-.03.31-.06.36-.06.06,0,.06.08.06.15,0,.38-.04,1.26-.04,1.4,0,.11-.04.17-.09.17-.06,0-.09-.04-.1-.22,0-.05-.01-.09-.01-.14-.04-.38-.34-.68-1.57-.7-.54-.01-1.07-.01-1.61-.03v5.4Z"/><path class="cls-1" d="M175.24,57.16c-.06,0-.1.04-.13.1l-.77,2.26c-.11.32-.18.63-.18.85,0,.26.24.37.46.37h.11c.13,0,.17.03.17.08,0,.08-.12.1-.23.1-.31,0-.82-.04-.96-.04s-.84.04-1.44.04c-.17,0-.24-.03-.24-.1,0-.05.06-.08.18-.08.09,0,.2-.01.31-.03.59-.08.84-.56,1.07-1.2l2.9-7.92c.15-.42.2-.5.28-.5s.13.06.28.46c.19.49,2.19,5.76,2.96,7.69.46,1.14.83,1.34,1.1,1.42.19.06.4.08.5.08.08,0,.14.01.14.08,0,.08-.11.1-.25.1-.19,0-1.12,0-2-.03-.24-.01-.38-.01-.38-.09,0-.05.04-.08.09-.09.08-.03.15-.14.08-.34l-1.18-3.14c-.03-.05-.05-.08-.11-.08h-2.74ZM177.82,56.7c.06,0,.06-.04.05-.09l-1.21-3.45c-.06-.19-.13-.19-.19,0l-1.13,3.44c-.03.06,0,.09.04.09h2.44Z"/><path class="cls-1" d="M189.45,55.8c.4-.38,2.13-2.21,2.91-3.01.77-.79.82-.92.82-1.07,0-.1-.06-.2-.17-.24-.09-.04-.11-.06-.11-.12s.08-.08.19-.08c.37,0,.33.04.76.04.4,0,1.15-.04,1.35-.04.18,0,.22.04.22.09s-.03.08-.14.09c-.24.03-.47.08-.65.15-.32.13-.56.28-1.33,1.02-1.12,1.08-2.58,2.52-2.91,2.89.8.88,3.12,3.24,3.72,3.8,1.05.98,1.49,1.26,2.1,1.38.11.03.24.04.37.04.1,0,.18.03.18.09s-.05.09-.19.09h-.94c-1.11,0-1.4-.14-2-.62-.77-.6-3.06-3.06-4.18-4.4v1.31c0,1.22,0,2.23.06,2.77.04.37.11.65.5.7.18.03.43.05.51.05.11,0,.15.05.15.09,0,.06-.05.09-.19.09-.7,0-1.51-.04-1.57-.04s-.82.04-1.2.04c-.14,0-.2-.01-.2-.09,0-.04.03-.09.14-.09.08,0,.22-.01.33-.04.26-.05.33-.34.38-.71.06-.54.07-1.54.07-2.77v-2.25c0-1.99,0-2.35-.02-2.76-.03-.43-.15-.65-.43-.71-.14-.04-.37-.05-.46-.05-.1,0-.14-.03-.14-.08,0-.08.06-.1.2-.1.42,0,1.28.04,1.34.04s.87-.04,1.25-.04c.14,0,.2.03.2.09,0,.05-.03.08-.14.09-.14.01-.15.01-.28.03-.34.04-.45.29-.47.74-.03.41-.03.77-.03,2.76v.82Z"/><path class="cls-1" d="M203.72,57.18c-.06,0-.1.04-.13.1l-.77,2.26c-.12.32-.18.63-.18.85,0,.26.24.37.46.37h.11c.13,0,.17.03.17.08,0,.08-.12.1-.23.1-.31,0-.82-.04-.96-.04s-.84.04-1.44.04c-.17,0-.24-.03-.24-.1,0-.05.06-.08.18-.08.09,0,.2-.01.31-.03.59-.08.84-.56,1.07-1.2l2.9-7.92c.15-.42.2-.5.28-.5s.13.06.28.46c.19.49,2.19,5.76,2.97,7.69.46,1.14.83,1.34,1.1,1.42.19.06.4.08.5.08.08,0,.14.01.14.08,0,.08-.12.1-.26.1-.19,0-1.12,0-2-.03-.24-.01-.38-.01-.38-.09,0-.05.04-.08.09-.09.08-.03.15-.14.08-.34l-1.18-3.14c-.03-.05-.05-.08-.11-.08h-2.74ZM206.29,56.73c.06,0,.06-.04.05-.09l-1.21-3.45c-.06-.19-.13-.19-.19,0l-1.13,3.44c-.03.06,0,.09.04.09h2.44Z"/><path class="cls-1" d="M25.95,23.3c0-.2-.39-.65-1.18-1.36-.2-.2-.38-.29-.55-.3-.25-.02-.39-.06-.44-.09-.05-.04-.07-.17-.07-.39v-2.38s-2.13,0-2.13,0v1.16c0,.25-.07.44-.2.57s-.33.2-.57.2h-8.99c-.25,0-.44-.08-.57-.21-.13-.13-.2-.33-.2-.57v-1.16s-2.11,0-2.11,0c0,.13,0,.25,0,.39v1.36s-.11,1.47-.11,1.47c-.02.12-.04.28-.04.48,0,.17.02.31.07.41.07.2.2.3.37.3.39,0,.79-.08,1.2-.24.41-.16.61-.3.61-.42,0-.22.07-.39.2-.52.14-.12.33-.18.57-.18h1.33c.47,0,.7.16.7.48,0,.12-.06.28-.18.48-1.77,2.36-3.97,4.37-6.6,6.03-.34.22-.52.42-.52.59,0,.07.01.12.04.15.07.1.18.15.33.15.17,0,.34-.04.52-.11,2.68-1.27,4.99-2.84,6.93-4.71.2-.2.37-.29.52-.29.12,0,.22.06.29.18.07.12.11.28.11.48v1.07c-.05,1.65-.13,3-.23,4.05,0,.2.05.37.15.52.1.15.23.22.4.22.71,0,1.28-.17,1.69-.51.2-.2.3-.43.3-.7v-.22c-.05-.69-.07-1.23-.07-1.62l-.07-1.44v-.96c0-.2.05-.36.15-.48.1-.12.23-.18.41-.18.05,0,.17.02.37.07,1.08.49,2.1,1.1,3.07,1.81.97.71,1.77,1.41,2.41,2.1.27.32.5.53.7.63.2.1.39.15.59.15.25,0,.43-.07.55-.22.12-.15.18-.34.18-.59,0-.64-.35-1.26-1.07-1.88-.56-.44-1.19-.85-1.88-1.22-.32-.17-.48-.33-.48-.48,0-.2.13-.37.41-.52l1.77-1.14c.2-.17.45-.26.77-.26h.22c.22,0,.33-.05.33-.15ZM22.3,23.77s-.25.28-.81.92c-.2.2-.39.29-.59.29-.05,0-.17-.02-.37-.07-1.03-.3-1.84-.52-2.43-.66-.44-.12-.66-.41-.66-.85v-.81c0-.25.07-.44.2-.57.13-.13.33-.2.57-.2h2.58c.52,0,.77.18.77.52,0,.17.03.3.09.39.06.09.14.13.24.13.25,0,.49-.04.74-.11.15-.05.18.04.11.26-.07.22-.22.48-.44.77Z"/><path class="cls-1" d="M86.94,28.88c.17-.07.32-.13.44-.18.12-.05.2-.11.22-.18.02-.1-.17-.27-.59-.52-2.65-1.4-5.22-3.42-7.69-6.07-.93-.99-1.77-2.03-2.57-3.1h-1.86c.94,1.75,1.97,3.41,3.12,4.94,2,2.67,4.19,4.85,6.57,6.54.17.12.31.18.4.18.25,0,.44-.15.59-.44.37-.59.82-.98,1.36-1.18Z"/><path class="cls-1" d="M54.89,30.36c-.32.25-.48.44-.48.59,0,.07.01.12.04.15.15.17.42.14.81-.11,2.83-1.79,5.39-3.92,7.7-6.38,1.7-1.81,3.2-3.74,4.51-5.78h-2.75c-.75,1.26-1.56,2.51-2.46,3.73-2.21,3.02-4.67,5.62-7.37,7.8Z"/><path class="cls-1" d="M147.31,28.35c0,.22.24.37.74.44.49.1.83.19,1.03.26.32.1.53.31.63.63.05.17.1.41.15.7.12.47.35.7.7.7h.15c1.55-.17,2.66-.7,3.34-1.58.68-.88,1.01-2.18,1.02-3.9,0-1.52-.4-3.06-1.21-4.61-.37-.71-.85-1.4-1.42-2.08h-1.67c1.27,1.94,1.92,3.99,1.91,6.13,0,.79-.09,1.41-.28,1.86-.18.45-.46.78-.83.98-.12.07-.26.12-.42.15-.16.02-.34.04-.53.04h-2.5c-.52,0-.77.1-.77.29Z"/><path class="cls-1" d="M133.58,22.59v-.15c.07-.86.11-1.73.11-2.62v-.94s-2.28,0-2.28,0v.98c0,.91-.04,1.79-.11,2.65-.05.49-.32.74-.81.74h-2.58c-1.67-.05-2.95-.12-3.83-.19-.22-.02-.39,0-.52.09-.12.09-.18.21-.18.39,0,.12.04.26.11.41l.15.3c.15.34.4.52.77.52h.18c1.42-.24,2.75-.38,3.98-.4h1.66c.22,0,.4.06.53.17.13.11.2.26.2.46l-.04.22c-.39,2.04-1.08,3.84-2.05,5.39-.97,1.56-2.32,2.95-4.04,4.18-.32.27-.48.47-.48.59,0,.07.01.12.04.15.12.17.39.15.81-.07,2.31-1.25,4.1-2.72,5.38-4.42,1.28-1.69,2.14-3.68,2.58-5.96.1-.47.38-.7.85-.7h7.7c.27,0,.5-.05.7-.18.12-.12.18-.25.18-.37s-.06-.27-.18-.44c-.29-.42-.77-.92-1.44-1.49-.66-.58-1.09-.87-1.29-.87-.1,0-.2.06-.29.17-.1.11-.23.27-.39.48-.16.21-.28.37-.35.5l-.41.59c-.22.34-.53.52-.92.51h-3.06c-.47,0-.7-.22-.7-.67Z"/><path class="cls-1" d="M203.32,21.4c-.11.17-.22.32-.31.44l-.41.55c-.22.32-.53.48-.92.48h-5.78c-.25,0-.44-.07-.57-.21-.14-.14-.2-.33-.2-.57v-3.15s-2.39,0-2.39,0v3.15c0,.25-.07.44-.21.57-.14.13-.33.2-.57.2h-5.41c-1.69-.06-2.97-.12-3.83-.19-.22-.02-.39,0-.52.09-.12.09-.18.22-.18.39,0,.12.04.26.11.41l.15.29c.15.32.39.48.74.48h.22c1.74-.24,3.36-.38,4.86-.4h3.87c.25,0,.44.07.57.21.13.14.2.33.2.57v7.7c0,.25-.08.44-.21.57-.14.13-.33.2-.57.2h-9.17c-1.69-.06-2.96-.12-3.79-.2-.22-.03-.39,0-.52.09-.12.09-.18.2-.18.35s.04.29.11.44l.15.26c.15.32.39.48.74.48h.22c1.74-.24,3.36-.38,4.86-.4l25.01.02c.29,0,.5-.05.63-.15.15-.1.22-.23.22-.41,0-.12-.06-.27-.18-.44-.32-.39-.82-.87-1.51-1.42-.69-.55-1.13-.83-1.33-.83-.1,0-.2.06-.31.17-.11.11-.24.27-.39.48-.15.21-.26.36-.33.46l-.44.63c-.22.32-.53.48-.92.48h-8.91c-.25,0-.44-.08-.57-.21-.14-.13-.2-.33-.2-.57v-7.7c0-.25.08-.44.21-.57.13-.13.32-.2.57-.2h10.06c.27,0,.5-.05.7-.17.15-.12.22-.26.22-.4,0-.12-.06-.27-.18-.44-.32-.39-.8-.85-1.45-1.36-.65-.52-1.06-.77-1.23-.77-.1,0-.21.06-.33.18-.12.12-.24.27-.35.44Z"/><path class="cls-1" d="M198.73,26.22c.71.64,1.36,1.34,1.93,2.1.58.76,1,1.5,1.27,2.21.12.34.33.58.63.7.25.05.4.07.48.07.34,0,.63-.13.85-.4.22-.27.33-.6.33-.99,0-.79-.42-1.59-1.27-2.41-.85-.82-2.15-1.47-3.92-1.94-.15-.05-.32-.07-.52-.07-.12,0-.21.02-.26.07-.07.12.09.34.48.66Z"/><path class="cls-1" d="M72.05,34.8c.2-.2.29-.43.3-.7v-.22c-.12-2.77-.2-5.49-.25-8.14v-6.91s-2.39,0-2.39,0v6.43c-.03,2.21-.08,4-.16,5.36-.07,1.36-.16,2.77-.26,4.22,0,.2.09.37.26.52.17.15.38.22.63.22.32,0,.66-.07,1.01-.22.36-.15.65-.33.87-.55Z"/><path class="cls-1" d="M4.46,34.58v-.52c0-.25.07-.44.2-.57.14-.14.33-.2.57-.2l22.36.02c.25,0,.44.07.57.2.13.13.2.33.2.57v.29c0,.25.03.44.09.57.06.14.15.2.28.2.27,0,.57-.07.9-.22.33-.15.63-.32.9-.51.25-.17.37-.43.37-.77v-.15c-.12-2.73-.2-5.43-.25-8.1v-6.61s-2.28,0-2.28,0v12.65c-.01.25-.08.44-.22.57-.14.13-.33.2-.57.2l-22.36-.02c-.25,0-.44-.07-.57-.2-.13-.13-.2-.33-.2-.57v-12.65s-2.24,0-2.24,0v6.43c-.03,2.21-.08,4-.16,5.36-.07,1.36-.16,2.77-.26,4.22,0,.2.09.37.26.52.17.15.37.22.59.22.44,0,.85-.11,1.23-.33.38-.22.57-.42.57-.59Z"/><path class="cls-1" d="M145.91,34.09c-.12-2.73-.2-5.43-.25-8.1v-7.09s-2.24,0-2.24,0v6.46c-.03,2.21-.08,4-.16,5.36-.07,1.36-.16,2.77-.26,4.22,0,.17.08.34.24.5s.33.24.5.24c.64,0,1.24-.21,1.81-.62.25-.17.37-.43.37-.77v-.18Z"/><path class="cls-1" d="M2.66,16.68V4.03c.01-.25.08-.44.21-.57.14-.13.33-.2.57-.2l22.36.02c.25,0,.44.07.57.2.13.14.2.33.2.57v12.65s2.27,0,2.27,0V4.38c.01-.42.23-.7.67-.85.05-.02.11-.05.18-.07.07-.02.15-.06.22-.11.22-.15.33-.31.33-.48,0-.15-.05-.28-.15-.41-.34-.37-.8-.77-1.36-1.2-.57-.43-.93-.65-1.1-.65-.15,0-.31.1-.48.31-.17.21-.29.36-.37.46l-.22.29c-.22.32-.53.48-.92.48l-22.28-.02c-.32,0-.64-.07-.96-.22l-1.47-.7c-.15-.07-.28-.11-.41-.11-.29,0-.44.2-.44.59v.15c.22,1.92.33,4.06.33,6.45v8.38s2.24,0,2.24,0Z"/><path class="cls-1" d="M67.9,7.33v1.25c0,.25-.07.44-.2.57-.14.14-.33.2-.57.2h-9.25c-1.69-.06-2.96-.12-3.79-.2-.22-.02-.39,0-.52.09-.12.09-.18.2-.18.35s.04.29.11.44l.18.33c.15.32.39.48.74.48h.22c1.74-.24,3.36-.38,4.86-.4h5.67c.2,0,.36.06.48.15.12.1.18.23.18.41l-.07.33c-.75,1.83-1.66,3.63-2.7,5.39h2.76c.42-.65.81-1.32,1.19-2,.15-.29.32-.44.52-.44.25,0,.37.22.37.66v1.79s2.39,0,2.39,0v-3.66c0-.42.13-.63.37-.63.17,0,.33.16.48.48.55,1.33,1.16,2.59,1.8,3.81h1.8c-1.25-1.7-2.37-3.48-3.3-5.36-.07-.15-.11-.28-.11-.41,0-.34.22-.52.66-.51h12.23c.27.01.5-.05.7-.17.12-.12.18-.24.18-.37s-.06-.27-.18-.44c-.32-.44-.85-.96-1.58-1.57-.74-.6-1.2-.9-1.4-.9-.1,0-.2.06-.31.17-.11.11-.25.28-.42.5-.17.22-.31.39-.41.52l-.52.7c-.22.32-.53.48-.92.48h-8.29c-.25,0-.44-.08-.57-.21-.13-.13-.2-.33-.2-.57V2.76c0-.39.17-.7.48-.92l.11-.07c.2-.12.29-.24.29-.37,0-.32-.91-.76-2.72-1.33C68.31.03,68.2,0,68.13,0c-.17,0-.31.06-.41.17-.1.11-.15.25-.15.42v.15c.22,1.94.33,4.14.33,6.59Z"/><path class="cls-1" d="M148.15,14.7c-.22-.2-.33-.41-.33-.63,0-.15.05-.31.15-.48.91-1.47,2.41-4.25,4.5-8.32.1-.2.22-.33.35-.4.14-.07.33-.13.57-.18.12,0,.26-.02.41-.07.27-.07.41-.23.41-.48,0-.1-.04-.22-.11-.37-.32-.47-.75-.97-1.31-1.51-.55-.54-.91-.81-1.09-.81-.15,0-.31.1-.5.31-.18.21-.33.36-.42.46l-.29.33c-.22.29-.54.44-.96.44h-4.71c-.3,0-.61-.08-.96-.23l-1.69-.89c-.15-.07-.28-.11-.41-.11-.32,0-.48.18-.48.55v.15c.22,1.94.33,4.09.32,6.45v7.9s2.24,0,2.24,0V4.82c.01-.25.08-.44.21-.57.13-.13.33-.2.57-.2h4.64c.47,0,.7.2.7.59,0,.12-.01.22-.04.29-1.08,3.41-2.09,6.35-3.03,8.8-.05.2-.07.32-.07.37,0,.22.1.46.29.7.62.66,1.17,1.33,1.64,2.01h1.62c-.63-.72-1.37-1.43-2.23-2.12Z"/><path class="cls-1" d="M129.93.39c-.17,0-.31.06-.42.18-.11.12-.17.28-.17.48v.07c.12,1.13.21,2.58.25,4.35,0,.52-.26.77-.77.77h-2.17c-1.69-.05-2.96-.12-3.79-.19-.49-.05-.74.11-.74.48,0,.12.04.26.11.41l.15.26c.15.34.4.52.77.52h.18c1.35-.24,2.63-.38,3.83-.4h1.66c.25,0,.44.07.57.2.13.14.2.33.2.57v4.71c0,.25-.07.44-.21.57-.14.13-.33.2-.57.2h-1.55c-1.67-.05-2.92-.11-3.76-.19-.49-.05-.74.11-.74.48,0,.12.04.26.11.41l.15.26c.17.32.42.48.74.48.1,0,.18-.01.26-.04,1.06-.22,2.16-.34,3.32-.37h1.47c.25,0,.44.07.57.2.13.14.2.33.2.57v1.42s2.28,0,2.28,0v-1.42c0-.25.07-.44.2-.57.13-.13.33-.2.57-.2h6.34c.29,0,.5-.04.63-.14.15-.12.22-.26.22-.4,0-.1-.05-.25-.15-.44-.29-.39-.75-.85-1.38-1.38-.63-.53-1.03-.79-1.2-.79-.1,0-.2.05-.29.15-.1.1-.22.25-.35.46-.14.21-.24.36-.31.46l-.37.55c-.22.34-.53.52-.92.51h-2.21c-.25,0-.44-.07-.57-.2-.14-.14-.2-.33-.2-.57v-4.71c0-.25.07-.44.21-.57s.33-.2.57-.2h7c.27,0,.49-.05.66-.18.15-.12.22-.26.22-.4,0-.12-.06-.27-.18-.44-.32-.39-.8-.86-1.45-1.4-.65-.54-1.07-.81-1.27-.81-.1,0-.2.05-.3.15-.1.1-.22.25-.35.46-.14.21-.25.37-.35.5l-.41.59c-.22.32-.53.48-.92.48h-2.65c-.25,0-.44-.07-.57-.21-.14-.13-.2-.33-.2-.57v-2.36c0-.39.16-.7.48-.92l.11-.07c.2-.12.29-.24.29-.37,0-.32-.83-.75-2.5-1.29l-.33-.07Z"/><path class="cls-1" d="M201.62,11.51c-.11.15-.22.28-.31.4l-.37.52c-.22.32-.54.48-.96.48h-15.58c-1.69-.07-2.96-.13-3.79-.2-.49-.05-.74.11-.74.48,0,.12.04.26.11.41l.18.33c.15.32.39.48.74.48h.22c1.74-.24,3.36-.38,4.86-.4h4.16c.25,0,.44.07.57.21.13.14.2.33.2.57v2.08s2.39,0,2.39,0v-2.08c0-.25.07-.44.21-.57.13-.13.32-.2.57-.2h10.06c.27,0,.5-.05.7-.17.12-.12.18-.26.18-.4,0-.1-.06-.23-.18-.41-.27-.39-.71-.84-1.32-1.35-.61-.5-1.02-.76-1.21-.76-.1,0-.21.06-.33.18-.12.12-.24.26-.35.4Z"/><path class="cls-1" d="M190.74.74v.07c.1,1.1.17,2.39.22,3.87,0,.52-.26.77-.77.77h-8.55c-.42,0-.69-.24-.81-.71l-.15-.63c-.1-.44-.26-.66-.48-.66-.2,0-.29.27-.3.81-.03,1.13-.28,2.16-.76,3.09-.48.93-1.06,1.61-1.75,2.02-.29.2-.53.42-.7.68-.17.26-.26.53-.26.83,0,.17.04.33.11.48.17.42.54.63,1.1.63s1.03-.18,1.47-.55c.49-.37.92-.9,1.27-1.6.36-.7.57-1.54.65-2.52.05-.52.31-.77.77-.77l21.44.02c.22,0,.39.05.52.15.12.1.18.23.18.41,0,.07-.03.18-.07.33-.52,1.38-.85,2.23-1,2.58-.1.27-.15.48-.15.63s.07.22.22.22c.2,0,.39-.1.59-.29.79-.64,1.82-1.68,3.1-3.13.22-.27.54-.43.96-.48l.18-.04c.27-.07.41-.23.41-.48,0-.1-.04-.22-.11-.37-.29-.47-.71-.98-1.25-1.55-.54-.57-.9-.85-1.07-.85-.1,0-.2.04-.29.13-.1.09-.22.22-.35.39-.14.17-.24.29-.31.37l-.33.44c-.25.29-.57.44-.96.44h-9.39c-.25,0-.44-.08-.57-.21-.14-.13-.2-.33-.2-.57v-1.88c0-.39.17-.7.52-.92l.11-.07c.2-.12.3-.24.3-.37,0-.32-.88-.75-2.65-1.29l-.33-.07c-.37,0-.55.22-.55.66Z"/><path class="cls-1" d="M4.98,10.84c-.22-.02-.39,0-.52.09-.12.09-.18.2-.18.35s.04.3.11.44l.15.3c.15.32.39.48.74.48h.22c1.74-.24,3.36-.38,4.86-.4h14c.25.01.45-.05.63-.17.15-.12.22-.26.22-.41,0-.12-.06-.27-.18-.44-.27-.34-.67-.74-1.21-1.18-.54-.44-.9-.66-1.07-.66-.1,0-.19.04-.28.13-.09.09-.19.22-.31.39-.12.17-.22.31-.29.4l-.3.4c-.22.32-.53.48-.92.48h-4.2c-.25,0-.44-.07-.57-.21-.13-.13-.2-.33-.2-.57v-1.18c0-.25.07-.44.2-.57s.33-.2.57-.2h6.15c.25,0,.47-.05.66-.18.15-.12.22-.24.22-.37,0-.1-.05-.25-.15-.44-.27-.37-.67-.77-1.2-1.2-.53-.43-.88-.65-1.05-.65-.1,0-.2.04-.29.13-.1.09-.21.21-.33.39-.12.17-.21.29-.26.37l-.29.41c-.22.32-.53.48-.92.48h-2.54c-.52,0-.77-.21-.77-.63,0-.44.16-.75.48-.92.17-.12.26-.22.26-.29,0-.27-.71-.66-2.14-1.18l-.33-.07c-.37,0-.55.22-.55.66v.07c.05.64.07,1.17.07,1.58,0,.52-.26.77-.77.77h-2.06c-1.69-.05-2.96-.12-3.79-.19-.49-.05-.74.11-.74.48,0,.12.04.26.11.41l.15.26c.15.34.4.52.77.52h.18c1.35-.24,2.6-.38,3.76-.4h1.62c.25,0,.44.07.57.2.13.14.2.33.2.57v1.18c0,.25-.07.44-.2.57-.14.14-.33.2-.57.2h-3.9c-1.69-.05-2.96-.12-3.79-.19Z"/><path class="cls-1" d="M22.51,15.46h.04c.25-.17.37-.34.37-.52,0-.15-.05-.27-.15-.37-.25-.32-.59-.66-1.05-1.01-.45-.36-.77-.54-.94-.54-.15,0-.29.1-.44.29-.15.2-.26.33-.33.4l-.15.18c-.27.32-.59.48-.96.48h-8.99c-.37,0-.69-.08-.96-.23l-1.1-.55c-.15-.07-.28-.11-.41-.11s-.23.06-.31.17c-.09.11-.13.25-.13.42v.15c.06.78.09,1.6.1,2.45h2.11s0-.46,0-.46c0-.25.07-.44.2-.57.14-.13.33-.2.57-.2h8.99c.25,0,.44.08.57.21.13.14.2.33.2.57v.46s2.14,0,2.14,0v-.35c0-.32.21-.61.63-.88Z"/></g></svg>