<?xml version="1.0" encoding="UTF-8"?><svg id="_レイヤー_2" xmlns="http://www.w3.org/2000/svg" viewBox="0 0 32.04 32.04"><defs><style>.cls-1{fill:#0d192c;}.cls-2{fill:#fff;stroke:#fff;stroke-miterlimit:10;stroke-width:1.2px;}</style></defs><g id="_レイアウト"><rect class="cls-1" width="32.04" height="32.04"/><path class="cls-2" d="M17.47,5.23l-2.52-1.9-.31.41,1.86,1.4s0,0,0,0l.31.23-.37.28s0,0,0,0l-1.79,1.35.31.41,2.25-1.7c5.17.59,9.21,4.97,9.21,10.3,0,5.73-4.66,10.39-10.39,10.39s-10.39-4.66-10.39-10.39S10.05,5.88,15.58,5.65l.37-.28-.32-.24c-5.83.2-10.52,5-10.52,10.89s4.89,10.91,10.91,10.91,10.91-4.89,10.91-10.91c0-5.52-4.12-10.08-9.45-10.79Z"/></g></svg>