<?xml version="1.0" encoding="UTF-8"?><svg id="_レイヤー_2" xmlns="http://www.w3.org/2000/svg" viewBox="0 0 303.1 43.28"><defs><style>.cls-1{fill:#fff;}</style></defs><g id="_レイヤー_1-2"><path class="cls-1" d="M79.73,4.71c0-1.42.48-2.56,1.43-3.42s2.14-1.29,3.56-1.29,2.63.43,3.6,1.28,1.44,2.01,1.44,3.48-.46,2.58-1.38,3.46-2.13,1.32-3.64,1.32-2.66-.44-3.6-1.32-1.41-2.05-1.41-3.51ZM81.29,4.76c0,1.48.3,2.59.89,3.34s1.48,1.11,2.66,1.11c1.04,0,1.86-.37,2.46-1.11s.9-1.85.9-3.32-.3-2.53-.89-3.29-1.45-1.14-2.58-1.14-1.96.37-2.55,1.12-.89,1.85-.89,3.3Z"/><path class="cls-1" d="M97.46,3.82v.31h-1.16v3.34c0,.59,0,.97.02,1.12s.08.27.19.35.32.12.6.12h.29v.31h-3.01v-.31c.31,0,.53-.03.65-.1s.19-.16.22-.29.04-.53.04-1.21v-3.34h-1.04v-.31h1.04v-.5c0-.56.02-1,.07-1.3s.17-.63.38-.95.48-.58.79-.76.7-.26,1.14-.26c.53,0,.96.11,1.28.33s.48.45.48.68c0,.13-.05.24-.14.33s-.2.13-.32.13c-.24,0-.46-.19-.66-.56-.22-.41-.51-.61-.86-.61-.29,0-.54.1-.75.31s-.34.46-.38.77-.06.97-.06,1.98v.42h1.16Z"/><path class="cls-1" d="M104.85,3.82v.31h-1.16v3.34c0,.59,0,.97.02,1.12s.08.27.19.35.32.12.6.12h.29v.31h-3.01v-.31c.31,0,.53-.03.65-.1s.19-.16.22-.29.04-.53.04-1.21v-3.34h-1.04v-.31h1.04v-.5c0-.56.02-1,.07-1.3s.17-.63.38-.95.48-.58.79-.76.7-.26,1.14-.26c.53,0,.96.11,1.28.33s.48.45.48.68c0,.13-.05.24-.14.33s-.2.13-.32.13c-.24,0-.46-.19-.66-.56-.22-.41-.51-.61-.86-.61-.29,0-.54.1-.75.31s-.34.46-.38.77-.06.97-.06,1.98v.42h1.16Z"/><path class="cls-1" d="M111.1,3.59v3.88c0,.59,0,.97.03,1.12s.08.27.2.35.32.12.6.12h.14v.31h-3v-.31h.23c.32,0,.53-.05.63-.14s.15-.2.17-.33.02-.5.02-1.12v-1.68c0-.65-.03-1.05-.09-1.2s-.14-.24-.24-.27-.28-.05-.53-.05h-.18v-.31c.81-.08,1.43-.2,1.87-.36h.15ZM109.79.75c0-.19.07-.36.21-.5s.3-.21.5-.21.36.07.5.21.2.31.2.5-.07.37-.2.51-.3.21-.5.21-.36-.07-.5-.21-.21-.31-.21-.51Z"/><path class="cls-1" d="M121.27,8.02h.3c-.31,1.06-1.08,1.58-2.31,1.58-.79,0-1.46-.27-2-.81s-.81-1.25-.81-2.14.29-1.65.88-2.21,1.27-.85,2.07-.85c.48,0,.92.11,1.32.32s.6.47.6.77c0,.11-.04.22-.11.32s-.18.15-.32.15c-.3,0-.48-.17-.55-.52-.05-.26-.14-.45-.25-.55-.12-.1-.35-.16-.69-.16-.61,0-1.06.21-1.37.63s-.46,1.06-.46,1.9.16,1.56.49,2.05.83.74,1.49.74c.9,0,1.47-.41,1.71-1.22Z"/><path class="cls-1" d="M127.75,3.59v3.88c0,.59,0,.97.03,1.12s.08.27.2.35.32.12.6.12h.14v.31h-3v-.31h.23c.32,0,.53-.05.63-.14s.15-.2.17-.33.02-.5.02-1.12v-1.68c0-.65-.03-1.05-.09-1.2s-.14-.24-.24-.27-.28-.05-.53-.05h-.18v-.31c.81-.08,1.43-.2,1.87-.36h.15ZM126.44.75c0-.19.07-.36.21-.5s.3-.21.5-.21.36.07.5.21.2.31.2.5-.07.37-.2.51-.3.21-.5.21-.36-.07-.5-.21-.21-.31-.21-.51Z"/><path class="cls-1" d="M138.74,8.36h.25c-.04.77-.42,1.16-1.14,1.16-.31,0-.55-.08-.73-.24s-.3-.41-.35-.73c-.45.32-.87.56-1.24.73s-.71.24-1,.24c-.38,0-.7-.11-.97-.33s-.41-.51-.41-.86c0-.47.23-.87.68-1.22s1.08-.69,1.89-1.02l1.05-.43v-.27c0-.38-.02-.66-.07-.84s-.18-.33-.39-.46-.48-.2-.82-.2c-.68,0-1.06.23-1.13.68-.07.46-.26.69-.57.69-.28,0-.41-.13-.41-.39s.18-.54.55-.83.94-.44,1.71-.44c.57,0,1.02.09,1.34.27s.53.39.63.62.15.58.15,1.06v2.25c0,.53.03.86.08,1.01s.17.22.35.22c.3,0,.48-.22.56-.67ZM136.77,5.98l-.74.3c-1.17.48-1.75,1.07-1.75,1.79,0,.29.07.52.22.69s.34.26.58.26c.21,0,.46-.07.74-.21s.6-.35.94-.63v-2.2Z"/><path class="cls-1" d="M144.88.04v7.43c0,.59,0,.97.02,1.12s.08.27.19.35.32.12.6.12h.16v.31h-2.98v-.31h.19c.27,0,.47-.04.58-.11s.18-.18.21-.32.03-.53.03-1.17V1.97c0-.58-.05-.95-.16-1.1s-.36-.23-.76-.23v-.31c.28,0,.6-.03.97-.1s.63-.13.77-.19h.15Z"/><path class="cls-1" d="M164.34.17l.07,2.3h-.32c-.06-.5-.2-.92-.42-1.25s-.45-.53-.69-.61-.65-.12-1.22-.12h-1.8v3.91h.86c.56,0,.93-.09,1.11-.28s.28-.56.28-1.13h.34v3.25h-.34c0-.39-.04-.71-.12-.93s-.2-.38-.35-.47-.46-.13-.91-.13h-.86v2.29c0,.72.02,1.2.05,1.42s.13.39.28.5.43.16.85.16h.31v.31h-4.28v-.31h.29c.39,0,.67-.05.82-.15s.25-.25.29-.47.06-.7.06-1.47V2.47c0-.73-.02-1.21-.06-1.42s-.13-.36-.27-.44-.44-.12-.91-.12h-.16V.17h7.11Z"/><path class="cls-1" d="M174.22,8.36h.25c-.04.77-.42,1.16-1.14,1.16-.31,0-.55-.08-.73-.24s-.3-.41-.35-.73c-.45.32-.87.56-1.24.73s-.71.24-1,.24c-.38,0-.7-.11-.97-.33s-.41-.51-.41-.86c0-.47.23-.87.68-1.22s1.08-.69,1.89-1.02l1.05-.43v-.27c0-.38-.02-.66-.07-.84s-.18-.33-.39-.46-.48-.2-.82-.2c-.68,0-1.06.23-1.13.68-.07.46-.26.69-.57.69-.28,0-.41-.13-.41-.39s.18-.54.55-.83.94-.44,1.71-.44c.57,0,1.02.09,1.34.27s.53.39.63.62.15.58.15,1.06v2.25c0,.53.03.86.08,1.01s.17.22.35.22c.3,0,.48-.22.56-.67ZM172.25,5.98l-.74.3c-1.17.48-1.75,1.07-1.75,1.79,0,.29.07.52.22.69s.34.26.58.26c.21,0,.46-.07.74-.21s.6-.35.94-.63v-2.2Z"/><path class="cls-1" d="M180.15,3.59h.18c.1.28.16.66.18,1.15.33-.38.67-.67,1.03-.86s.73-.29,1.12-.29c.44,0,.81.09,1.09.28s.47.41.55.68.12.66.12,1.18v1.74c0,.64.01,1.04.03,1.18s.09.25.21.32.34.11.66.11v.31h-2.85v-.31h.13c.33,0,.54-.05.64-.14s.16-.21.17-.33.02-.5.02-1.12v-1.79c0-.44-.02-.75-.06-.94s-.16-.35-.35-.5-.43-.22-.72-.22c-.33,0-.65.1-.95.3s-.59.49-.85.89v2.27c0,.64.01,1.04.04,1.18s.1.25.22.32.34.11.67.11v.31h-2.81v-.31c.31,0,.53-.03.65-.1s.2-.16.23-.29.04-.53.04-1.21v-1.66c0-.65-.01-1.04-.04-1.18s-.1-.24-.22-.31-.34-.11-.67-.11v-.31c.5-.05,1.01-.16,1.53-.31Z"/><path class="cls-1" d="M194.56,8.02h.3c-.31,1.06-1.08,1.58-2.31,1.58-.79,0-1.46-.27-2-.81s-.81-1.25-.81-2.14.29-1.65.88-2.21,1.27-.85,2.07-.85c.48,0,.92.11,1.32.32s.6.47.6.77c0,.11-.04.22-.11.32s-.18.15-.32.15c-.3,0-.48-.17-.55-.52-.05-.26-.14-.45-.25-.55-.12-.1-.35-.16-.69-.16-.61,0-1.06.21-1.37.63s-.46,1.06-.46,1.9.16,1.56.49,2.05.83.74,1.49.74c.9,0,1.47-.41,1.71-1.22Z"/><path class="cls-1" d="M200.94.04v7.43c0,.59,0,.97.02,1.12s.08.27.19.35.32.12.6.12h.16v.31h-2.98v-.31h.19c.27,0,.47-.04.58-.11s.18-.18.21-.32.03-.53.03-1.17V1.97c0-.58-.05-.95-.16-1.1s-.36-.23-.76-.23v-.31c.28,0,.6-.03.97-.1s.63-.13.77-.19h.15Z"/><path class="cls-1" d="M211.8,3.82v3.65c0,.61,0,.99.03,1.14s.08.27.2.35.32.12.62.12v.31c-.69,0-1.19.08-1.51.22h-.08c-.15-.25-.22-.68-.23-1.29-.28.43-.59.75-.95.97s-.75.33-1.18.33c-.37,0-.7-.08-.99-.25s-.48-.38-.59-.62-.16-.61-.16-1.11v-1.9c0-.64-.01-1.04-.03-1.18s-.09-.25-.21-.32-.34-.1-.66-.1v-.31h1.89v3.86c0,.38.02.66.07.83s.16.32.35.45.4.19.65.19c.35,0,.68-.11,1-.34s.53-.47.65-.73.17-.62.17-1.1v-1.26c0-.61,0-.98-.02-1.11s-.07-.25-.17-.34-.31-.15-.64-.15h-.14v-.31h1.94Z"/><path class="cls-1" d="M217.96,9.61h-.26V2.16c0-.54-.01-.89-.04-1.05s-.1-.28-.22-.35-.33-.12-.63-.12v-.31c.27,0,.59-.03.96-.1s.63-.13.77-.19h.14v4.4c.32-.29.64-.5.96-.64s.66-.21.99-.21c.8,0,1.46.28,1.97.84s.77,1.27.77,2.13-.26,1.59-.79,2.17-1.21.87-2.04.87c-.41,0-.77-.09-1.08-.26s-.57-.43-.78-.77c-.29.29-.53.64-.71,1.03ZM218.67,4.84v2.18c0,.56.04.97.11,1.21s.25.48.54.71.62.34,1,.34c.58,0,1.05-.24,1.4-.72s.52-1.17.52-2.07c0-.83-.16-1.46-.49-1.89s-.75-.65-1.29-.65c-.31,0-.61.07-.91.22s-.59.37-.88.67Z"/><path class="cls-1" d="M2.44,29.84c0-4.37,0-5.15-.06-6.05-.06-.95-.2-1.4-1.12-1.6-.22-.06-.7-.08-.95-.08-.2,0-.31-.06-.31-.17,0-.17.14-.22.45-.22,1.26,0,3.02.08,3.16.08.34,0,2.1-.08,3.78-.08,2.77,0,7.9-.25,11.23,3.19,1.4,1.46,2.72,3.78,2.72,7.11,0,3.53-1.46,6.24-3.02,7.9-1.2,1.26-3.72,3.22-8.48,3.22-1.2,0-2.69-.08-3.89-.17-1.23-.08-2.18-.17-2.32-.17-.06,0-.53,0-1.12.03-.56,0-1.2.06-1.62.06-.31,0-.45-.06-.45-.22,0-.08.06-.17.28-.17.31-.03.53-.06.78-.11.56-.11.7-.73.81-1.54.14-1.18.14-3.39.14-6.08v-4.93ZM4.79,32.86c0,2.97.03,5.54.06,6.08.03.7.08,1.82.31,2.13.36.53,1.46,1.12,4.76,1.12,2.6,0,5.01-.95,6.66-2.6,1.46-1.43,2.24-4.12,2.24-6.69,0-3.56-1.54-5.85-2.69-7.06-2.63-2.77-5.82-3.16-9.16-3.16-.56,0-1.6.08-1.82.2-.25.11-.34.25-.34.56-.03.95-.03,3.81-.03,5.96v3.47Z"/><path class="cls-1" d="M28.28,32.27c0-4.54,3.3-10.95,11.03-10.95,6.3,0,11,3.98,11,10.5s-4.42,11.45-11.17,11.45c-7.67,0-10.86-5.96-10.86-11ZM47.63,32.61c0-6.72-4.09-10.33-8.51-10.33-4.68,0-8.18,3.08-8.18,9.21,0,6.52,3.92,10.72,8.96,10.72,2.52,0,7.73-1.46,7.73-9.6Z"/><path class="cls-1" d="M62.8,34.82c0,4.12.11,5.91.62,6.41.45.45,1.18.64,3.36.64,1.48,0,2.72-.03,3.39-.84.36-.45.64-1.15.73-1.68.03-.22.08-.36.25-.36.14,0,.17.11.17.42s-.2,1.99-.42,2.8c-.2.64-.28.76-1.76.76-2.41,0-4.79-.17-7.5-.17-.87,0-1.71.08-2.74.08-.31,0-.45-.06-.45-.22,0-.08.06-.17.22-.17.25,0,.59-.06.84-.11.56-.11.7-.73.81-1.54.14-1.18.14-3.39.14-6.08v-4.93c0-4.37,0-5.15-.06-6.05-.06-.95-.28-1.4-1.2-1.6-.22-.06-.7-.08-.95-.08-.11,0-.22-.06-.22-.17,0-.17.14-.22.45-.22,1.26,0,3.02.08,3.16.08s2.18-.08,3.02-.08c.31,0,.45.06.45.22,0,.11-.11.17-.22.17-.2,0-.59.03-.92.08-.81.14-1.04.62-1.09,1.6-.06.9-.06,1.68-.06,6.05v4.98Z"/><path class="cls-1" d="M80.39,29.84c0-4.37,0-5.15-.06-6.05-.06-.95-.28-1.4-1.2-1.6-.22-.06-.7-.08-.95-.08-.11,0-.22-.06-.22-.17,0-.17.14-.22.45-.22,1.26,0,2.94.08,3.16.08.62,0,2.24-.08,3.53-.08,3.5,0,4.76,1.18,5.21,1.6.62.59,1.4,1.85,1.4,3.67,0,3.64-2.91,6.33-6.89,6.33-.14,0-.45,0-.59-.03-.14,0-.31-.06-.31-.2,0-.22.17-.25.76-.25,2.72,0,4.84-1.85,4.84-4.79,0-.7-.08-2.58-1.57-4.09s-3.19-1.4-3.84-1.4c-.48,0-.95.06-1.2.17-.17.06-.22.25-.22.53v11.51c0,2.69,0,4.9.14,6.08.08.81.25,1.43,1.09,1.54.39.06,1.01.11,1.26.11.17,0,.22.08.22.17,0,.14-.14.22-.45.22-1.54,0-3.3-.08-3.44-.08-.08,0-1.85.08-2.69.08-.31,0-.45-.06-.45-.22,0-.08.06-.17.22-.17.25,0,.59-.06.84-.11.56-.11.7-.73.81-1.54.14-1.18.14-3.39.14-6.08v-4.93Z"/><path class="cls-1" d="M116.12,30.59c.08,0,.17-.03.17-.17v-.59c0-4.37,0-5.15-.06-6.05-.06-.95-.28-1.4-1.2-1.6-.22-.06-.7-.08-.95-.08-.11,0-.22-.06-.22-.17,0-.17.14-.22.45-.22,1.26,0,3.02.08,3.16.08s1.9-.08,2.74-.08c.31,0,.45.06.45.22,0,.11-.11.17-.22.17-.2,0-.36.03-.7.08-.76.14-.98.62-1.04,1.6-.06.9-.06,1.68-.06,6.05v4.93c0,2.69,0,4.9.14,6.08.08.81.25,1.43,1.09,1.54.39.06,1.01.11,1.26.11.17,0,.22.08.22.17,0,.14-.14.22-.45.22-1.54,0-3.3-.08-3.44-.08s-1.9.08-2.74.08c-.31,0-.45-.06-.45-.22,0-.08.06-.17.22-.17.25,0,.59-.06.84-.11.56-.11.7-.73.81-1.54.14-1.18.14-3.39.14-6.08v-2.94c0-.11-.08-.17-.17-.17h-11.87c-.08,0-.17.03-.17.17v2.94c0,2.69,0,4.9.14,6.08.08.81.25,1.43,1.09,1.54.39.06,1.01.11,1.26.11.17,0,.22.08.22.17,0,.14-.14.22-.45.22-1.54,0-3.3-.08-3.44-.08s-1.9.08-2.74.08c-.31,0-.45-.06-.45-.22,0-.08.06-.17.22-.17.25,0,.59-.06.84-.11.56-.11.7-.73.81-1.54.14-1.18.14-3.39.14-6.08v-4.93c0-4.37,0-5.15-.06-6.05-.06-.95-.28-1.4-1.2-1.6-.22-.06-.7-.08-.95-.08-.11,0-.22-.06-.22-.17,0-.17.14-.22.45-.22,1.26,0,3.02.08,3.16.08s1.9-.08,2.74-.08c.31,0,.45.06.45.22,0,.11-.11.17-.22.17-.2,0-.36.03-.7.08-.76.14-.98.62-1.04,1.6-.06.9-.06,1.68-.06,6.05v.59c0,.14.08.17.17.17h11.87Z"/><path class="cls-1" d="M131.91,29.84c0-4.37,0-5.15-.06-6.05-.06-.95-.34-1.43-.95-1.57-.31-.08-.67-.11-.87-.11-.11,0-.22-.06-.22-.17,0-.17.14-.22.45-.22.92,0,2.69.08,2.83.08s1.9-.08,2.74-.08c.31,0,.45.06.45.22,0,.11-.11.17-.22.17-.2,0-.36.03-.7.08-.76.14-.98.62-1.04,1.6-.06.9-.06,1.68-.06,6.05v4.93c0,2.69,0,4.9.14,6.08.08.81.25,1.43,1.09,1.54.39.06.98.11,1.15.11.25,0,.34.08.34.17,0,.14-.11.22-.42.22-1.54,0-3.33-.08-3.47-.08s-1.9.08-2.74.08c-.31,0-.45-.06-.45-.22,0-.08.06-.17.31-.17.17,0,.48-.03.73-.08.56-.11.73-.76.84-1.57.14-1.18.14-3.39.14-6.08v-4.93Z"/><path class="cls-1" d="M146.66,34.62c0-10.11.06-6.47.03-11.9,0-1.09.08-1.4.31-1.4s.7.62.98.9c.42.48,4.59,4.98,8.9,9.6,2.77,2.97,5.82,6.38,6.72,7.31l-.31-14.22c-.03-1.82-.22-2.44-1.09-2.66-.5-.11-.95-.14-1.2-.14-.31,0-.39-.08-.39-.2,0-.17.22-.2.56-.2,1.26,0,2.6.08,2.91.08s1.23-.08,2.38-.08c.31,0,.5.03.5.2,0,.11-.11.17-.31.2-.22.03-.39.06-.73.11-.78.17-.98.59-.98,2.52l-.06,16.35c0,1.85-.06,1.99-.25,1.99-.22,0-.56-.31-2.04-1.79-.31-.28-4.34-4.4-7.31-7.59-3.25-3.5-6.41-7.03-7.31-8.04l.36,13.41c.06,2.3.34,3.02,1.09,3.25.53.14,1.15.17,1.4.17.14,0,.22.06.22.17,0,.17-.17.22-.5.22-1.6,0-2.72-.08-2.97-.08s-1.43.08-2.69.08c-.28,0-.45-.03-.45-.22,0-.11.08-.17.22-.17.22,0,.73-.03,1.15-.17.7-.2.84-1.01.84-3.56v-4.14Z"/><path class="cls-1" d="M204.31,30.59c.08,0,.17-.03.17-.17v-.59c0-4.37,0-5.15-.06-6.05-.06-.95-.28-1.4-1.2-1.6-.22-.06-.7-.08-.95-.08-.11,0-.22-.06-.22-.17,0-.17.14-.22.45-.22,1.26,0,3.02.08,3.16.08s1.9-.08,2.74-.08c.31,0,.45.06.45.22,0,.11-.11.17-.22.17-.2,0-.36.03-.7.08-.76.14-.98.62-1.04,1.6-.06.9-.06,1.68-.06,6.05v4.93c0,2.69,0,4.9.14,6.08.08.81.25,1.43,1.09,1.54.39.06,1.01.11,1.26.11.17,0,.22.08.22.17,0,.14-.14.22-.45.22-1.54,0-3.3-.08-3.44-.08s-1.9.08-2.74.08c-.31,0-.45-.06-.45-.22,0-.08.06-.17.22-.17.25,0,.59-.06.84-.11.56-.11.7-.73.81-1.54.14-1.18.14-3.39.14-6.08v-2.94c0-.11-.08-.17-.17-.17h-11.87c-.08,0-.17.03-.17.17v2.94c0,2.69,0,4.9.14,6.08.08.81.25,1.43,1.09,1.54.39.06,1.01.11,1.26.11.17,0,.22.08.22.17,0,.14-.14.22-.45.22-1.54,0-3.3-.08-3.44-.08s-1.9.08-2.74.08c-.31,0-.45-.06-.45-.22,0-.08.06-.17.22-.17.25,0,.59-.06.84-.11.56-.11.7-.73.81-1.54.14-1.18.14-3.39.14-6.08v-4.93c0-4.37,0-5.15-.06-6.05-.06-.95-.28-1.4-1.2-1.6-.22-.06-.7-.08-.95-.08-.11,0-.22-.06-.22-.17,0-.17.14-.22.45-.22,1.26,0,3.02.08,3.16.08s1.9-.08,2.74-.08c.31,0,.45.06.45.22,0,.11-.11.17-.22.17-.2,0-.36.03-.7.08-.76.14-.98.62-1.04,1.6-.06.9-.06,1.68-.06,6.05v.59c0,.14.08.17.17.17h11.87Z"/><path class="cls-1" d="M216.92,32.27c0-4.54,3.3-10.95,11.03-10.95,6.3,0,11,3.98,11,10.5s-4.42,11.45-11.17,11.45c-7.67,0-10.86-5.96-10.86-11ZM236.26,32.61c0-6.72-4.09-10.33-8.51-10.33-4.68,0-8.18,3.08-8.18,9.21,0,6.52,3.92,10.72,8.96,10.72,2.52,0,7.73-1.46,7.73-9.6Z"/><path class="cls-1" d="M255.05,34.76c0,2.69,0,4.9.14,6.08.08.81.25,1.43,1.09,1.54.39.06,1.01.11,1.26.11.17,0,.22.08.22.17,0,.14-.14.22-.45.22-1.54,0-3.3-.08-3.44-.08s-1.9.08-2.74.08c-.31,0-.45-.06-.45-.22,0-.08.06-.17.22-.17.25,0,.59-.06.84-.11.56-.11.7-.73.81-1.54.14-1.18.14-3.39.14-6.08v-11.84c-1.37.03-2.77.03-4.14.06-1.74.03-2.41.22-2.86.9-.31.48-.39.67-.48.87-.08.22-.17.28-.28.28-.08,0-.14-.08-.14-.25,0-.28.56-2.69.62-2.91.06-.17.17-.53.28-.53.2,0,.48.28,1.23.34.81.08,1.88.14,2.21.14h10.5c.9,0,1.54-.06,1.99-.14.42-.06.67-.14.78-.14.14,0,.14.17.14.34,0,.84-.08,2.77-.08,3.08,0,.25-.08.36-.2.36-.14,0-.2-.08-.22-.48,0-.11-.03-.2-.03-.31-.08-.84-.76-1.48-3.44-1.54-1.18-.03-2.35-.03-3.53-.06v11.84Z"/><path class="cls-1" d="M271.79,29.84c0-4.37,0-5.15-.06-6.05-.06-.95-.28-1.4-1.2-1.6-.2-.06-.56-.06-.81-.08-.2-.03-.36-.06-.36-.17,0-.17.14-.22.45-.22.64,0,1.4,0,3.16.08.2,0,5.77,0,6.41-.03.62-.03,1.12-.08,1.29-.17s.22-.11.31-.11.11.11.11.25c0,.2-.17.53-.22,1.32-.03.42-.06.95-.11,1.68-.03.28-.11.48-.22.48-.17,0-.22-.14-.22-.36,0-.36-.06-.7-.14-.92-.2-.64-.78-.92-2.02-1.04-.48-.06-3.53-.08-3.84-.08-.11,0-.17.08-.17.28v7.73c0,.2.03.28.17.28.36,0,3.81,0,4.45-.06.76-.06,1.12-.14,1.4-.48.14-.17.22-.28.34-.28.08,0,.14.06.14.22s-.14.64-.22,1.57c-.08.87-.08,1.51-.11,1.9-.03.28-.08.42-.2.42-.17,0-.2-.22-.2-.45,0-.25-.03-.53-.11-.78-.11-.42-.45-.81-1.46-.92-.76-.08-3.53-.14-4-.14-.14,0-.2.08-.2.2v2.46c0,.95-.03,4.2,0,4.79.06,1.15.22,1.76.92,2.04.48.2,1.23.25,2.32.25.84,0,1.76-.03,2.52-.25.9-.28,1.2-.87,1.43-2.07.06-.31.11-.42.25-.42.17,0,.17.22.17.42,0,.22-.22,2.13-.36,2.72-.2.73-.42.73-1.51.73-2.07,0-3-.06-4.09-.08-1.12-.03-2.41-.08-3.5-.08-.67,0-1.34.11-2.07.08-.31,0-.45-.06-.45-.22,0-.08.14-.14.31-.17.28-.03.45-.03.64-.08.59-.14.95-.53,1.01-2.63.03-1.09.06-2.52.06-5.01v-4.93Z"/><path class="cls-1" d="M294.59,34.82c0,4.12.11,5.91.62,6.41.45.45,1.18.64,3.36.64,1.48,0,2.72-.03,3.39-.84.36-.45.64-1.15.73-1.68.03-.22.08-.36.25-.36.14,0,.17.11.17.42s-.2,1.99-.42,2.8c-.2.64-.28.76-1.76.76-2.41,0-4.79-.17-7.5-.17-.87,0-1.71.08-2.74.08-.31,0-.45-.06-.45-.22,0-.08.06-.17.22-.17.25,0,.59-.06.84-.11.56-.11.7-.73.81-1.54.14-1.18.14-3.39.14-6.08v-4.93c0-4.37,0-5.15-.06-6.05-.06-.95-.28-1.4-1.2-1.6-.22-.06-.7-.08-.95-.08-.11,0-.22-.06-.22-.17,0-.17.14-.22.45-.22,1.26,0,3.02.08,3.16.08s2.18-.08,3.02-.08c.31,0,.45.06.45.22,0,.11-.11.17-.22.17-.2,0-.59.03-.92.08-.81.14-1.04.62-1.09,1.6-.06.9-.06,1.68-.06,6.05v4.98Z"/><path class="cls-1" d="M41.4,32.21c-.24-.8-.48-1.61-.85-2.36-.37-.73-.86-1.32-1.43-1.9-.6-.6-1.16-1.2-1.38-2.04-.23-.86-.17-1.77-.11-2.65.03-.52-.77-.65-.81-.12-.02.23-.03.46-.03.69,0,.11-.02.22-.02.32,0,.76.07,1.54.27,2.28.2.74.61,1.32,1.17,1.82.11.1.22.19.33.29.42.43.82.85,1.12,1.38.29.52.5,1.07.69,1.64-.06-.03-.11-.06-.17-.08-.75-.59-1.41-1.29-1.96-2.07-.02-.07-.04-.13-.06-.2-.08-.44-.74-.49-.81-.01-.15.96-1.31,1.26-2,1.74-.12.08-.23.17-.33.27.08-.44.24-.87.44-1.28.37-.75,1-1.43,1.19-2.25.15-.68-.1-1.29-.5-1.84-.37-.51-.91-.98-.94-1.65-.02-.53-.84-.43-.81.1.03.67.43,1.2.83,1.71.53.67.85,1.21.41,2.04-.42.79-.97,1.49-1.25,2.35-.29.86-.33,1.78.01,2.63.17.42.87.26.79-.2-.17-.97,1-1.41,1.66-1.8.32-.19.61-.41.84-.68.2.41.47.79.83,1.1.66.58,1.53.81,2.26,1.28.35.23.75-.07.63-.48Z"/><path class="cls-1" d="M48.64,19.73c-.11-.28-.26-.52-.29-.83-.03-.3.04-.61.06-.91.05-.6-.02-1.15-.39-1.64-.65-.87-1.85-1.43-2.84-1.82-1.09-.42-2.24-.66-3.4-.68-.54,0-1.09.02-1.62.11-.28.05-.55.11-.82.18-.35.09-.71.27-1.08.26-.3,0-.59-.15-.88-.22-.3-.07-.6-.12-.91-.15-.66-.06-1.34-.09-1.99.03-.61.12-2.43.89-1.81,1.8.14.2.35.23.57.22.4-.02.77-.06,1.17.02.04,0,.44.17.37.03.03.06-.2.39-.23.44-.17.33-.32.66-.46,1-.55,1.36-.77,2.81-.36,4.25.14.5.9.19.76-.31-.47-1.65.14-3.31.89-4.77.69-1.34-.72-1.46-1.78-1.47.27-.19.71-.33.85-.37.52-.13,1.08-.12,1.61-.09.48.03.95.09,1.41.23.39.12.75.21,1.16.13.44-.08.86-.26,1.3-.36.42-.09.86-.14,1.29-.17.86-.04,1.73.06,2.56.26.84.21,1.65.55,2.4.98.09.06.19.12.28.18.46.43.86.95,1,1.56.06.24.06.47.04.72-.02.21-.02.42.04.62,0,.11.03.22.05.32.08.31.64,1.09.11,1.2-.23.05-.52,0-.81-.07-.1-.05-.21-.11-.31-.16-.85-.41-1.75-.7-2.67-.87-.05,0-.1-.01-.14-.02-.13-.04-.27-.08-.4-.09-.35-.05-.48.17-.62.45-.27.54-.73.87-1.25,1.1.19-.3.36-.61.49-.93.13-.31.2-.65.11-.97-.08-.29-.29-.54-.58-.62-.04-.01-.09-.01-.13-.02-.01,0-.03-.02-.04-.02-.48-.19-.88,0-1.26.26-.18.07-.35.15-.52.24-.35.19-.67.43-.96.7-.53.3-1.01.64-1.24,1.26-.18.49.57.82.75.33.21-.56.73-.81,1.23-1.07.46-.23.81-.55,1.24-.82.26-.16.59-.21.63.17.03.28-.15.57-.29.81-.29.47-.6.9-1.08,1.2-.34.21-.1.82.29.73.15-.03.29-.07.44-.1.03.02.07.03.11.02.25-.08.5-.16.75-.26.34-.11.66-.25.97-.44.49-.31.75-.69,1.02-1.14.11.04.23.1.28.12.18.06.35.12.53.18.3.1.59.2.89.3.61.2,1.23.42,1.87.52.47.08,1.08.16,1.46-.19.39-.36.36-.91.18-1.36Z"/><rect class="cls-1" x="57.94" y="12.89" width="187.21" height=".51"/></g></svg>