<?xml version="1.0" encoding="UTF-8"?><svg id="_レイヤー_2" xmlns="http://www.w3.org/2000/svg" viewBox="0 0 42.47 42.47"><defs><style>.cls-1{fill:none;stroke:#fff;stroke-miterlimit:10;}.cls-2{fill:#fff;}</style></defs><g id="_レイヤー_1-2"><path class="cls-1" d="M41.97,21.24c0,11.45-9.28,20.74-20.74,20.74S.5,32.69.5,21.24,9.78.5,21.24.5s20.74,9.28,20.74,20.74ZM13.9,7.87c-3.21.46-5.68,3.23-6.1,6.39s-.38,10.44-.07,13.55c.38,3.82,3.13,6.58,6.96,6.96,3.17.31,9.88.31,13.05,0,3.62-.36,6.58-3,6.96-6.67.33-3.26.33-10.36,0-13.62-.33-3.31-3.06-6.24-6.42-6.64-3-.36-11.43-.38-14.37.04Z"/><path class="cls-2" d="M13.9,7.87c2.95-.43,11.37-.4,14.37-.04,3.36.4,6.08,3.33,6.42,6.64.33,3.26.33,10.36,0,13.62-.37,3.67-3.34,6.32-6.96,6.67-3.17.31-9.88.31-13.05,0-3.83-.38-6.58-3.13-6.96-6.96-.31-3.11-.34-10.51.07-13.55s2.89-5.92,6.1-6.39ZM14.18,10.14c-2.04.35-3.88,2.32-4.16,4.36-.37,2.69-.33,10.57-.03,13.32.28,2.52,2.51,4.43,4.97,4.68,3,.3,9.79.33,12.77,0,5.13-.56,4.59-5.17,4.69-8.94.07-2.69.34-6.4-.03-9.06-.28-2.03-2.06-4.09-4.11-4.41-2.21-.35-11.92-.32-14.11.05Z"/><path class="cls-2" d="M28.16,21.26c0,3.83-3.11,6.94-6.94,6.94s-6.94-3.11-6.94-6.94,3.11-6.94,6.94-6.94,6.94,3.11,6.94,6.94ZM25.9,21.25c0-2.58-2.09-4.67-4.67-4.67s-4.67,2.09-4.67,4.67,2.09,4.67,4.67,4.67,4.67-2.09,4.67-4.67Z"/><circle class="cls-2" cx="28.59" cy="14.04" r="1.54"/></g></svg>